<svg version="1.2" xmlns="http://www.w3.org/2000/svg" viewBox="0 0 700 500" width="700" height="500"><style>.a{fill:#df9296}.b{fill:#714b67}.c{fill:#ba131a}.d{fill:#fff}.e{opacity:.7;fill:#df9296}.f{fill:#d8787c}.g{fill:#f2d2d3}.h{fill:#fbf1f1}.i{fill:#f2f1f6}.j{fill:#e29c9f}.k{fill:#f1d0d1}.l{fill:#efc9ca}.m{fill:#fdf8f8}.n{opacity:.3;fill:#fff}.o{opacity:.9;fill:#fff}.p{fill:#223843}</style><path fill-rule="evenodd" class="a" d="m123.8 87.3c-0.2 0-0.3-0.1-0.4-0.3l-2.9-5.2-5.1-2.9c-0.2 0-0.3-0.2-0.3-0.4 0-0.2 0.1-0.3 0.3-0.4l5.2-2.9 2.8-5.2c0.1-0.1 0.3-0.2 0.5-0.2 0.1 0 0.3 0.1 0.4 0.3l2.8 5.2 5.2 2.8c0.2 0.1 0.3 0.3 0.3 0.5 0 0.1-0.1 0.3-0.3 0.4l-5.2 2.8-2.8 5.2c-0.1 0.2-0.3 0.3-0.5 0.3zm-7.1-8.8l4.5 2.5q0.1 0.1 0.2 0.2l2.4 4.5 2.5-4.5q0.1-0.1 0.2-0.2l4.5-2.4-4.5-2.5q-0.1-0.1-0.2-0.2l-2.4-4.6-2.5 4.6q-0.1 0.1-0.2 0.2l-4.5 2.4z"/><path fill-rule="evenodd" class="a" d="m618.8 112.9c-0.2 0-0.4-0.1-0.4-0.3l-1.6-2.8-2.9-1.6c-0.1-0.1-0.2-0.3-0.2-0.4 0-0.2 0.1-0.4 0.2-0.5l2.9-1.5 1.6-2.9c0.1-0.2 0.2-0.3 0.4-0.3 0.2 0 0.4 0.1 0.5 0.3l1.5 2.9 2.9 1.5c0.2 0.1 0.3 0.3 0.3 0.5 0 0.2-0.1 0.3-0.3 0.4l-2.9 1.6-1.6 2.9c0 0.1-0.2 0.2-0.4 0.2zm-3.6-5.1l2.2 1.2q0.1 0 0.2 0.2l1.2 2.2 1.2-2.2q0.1-0.1 0.2-0.2l2.2-1.2-2.2-1.2q-0.1-0.1-0.2-0.2l-1.2-2.2-1.2 2.2q-0.1 0.1-0.2 0.2z"/><path fill-rule="evenodd" class="a" d="m99.5 396c-0.2 0-0.4-0.1-0.5-0.2l-2.9-5.4-5.4-3c-0.1-0.1-0.2-0.2-0.2-0.4 0-0.2 0.1-0.4 0.2-0.4l5.4-3 3-5.3c0.1-0.2 0.3-0.3 0.4-0.3 0.2 0 0.4 0.1 0.5 0.3l2.9 5.3 5.4 3c0.1 0.1 0.2 0.3 0.2 0.4 0 0.2-0.1 0.4-0.2 0.5l-5.4 2.9-3 5.4c-0.1 0.1-0.2 0.2-0.4 0.2zm-7.5-9q0 0 0 0zm4.7 2.6q0.2 0.1 0.2 0.2l2.6 4.7 2.6-4.7q0.1-0.1 0.2-0.2l4.7-2.6-4.7-2.5q-0.1-0.1-0.2-0.2l-2.6-4.7-2.6 4.7q0 0.1-0.2 0.1c0 0-4.6 2.6-4.7 2.6z"/><path fill-rule="evenodd" class="b" d="m618.6 219.4c-0.1 0-0.3-0.1-0.4-0.3l-2.6-4.7-4.7-2.7c-0.2 0-0.3-0.2-0.3-0.4 0-0.2 0.1-0.3 0.3-0.4l4.7-2.6 2.6-4.8c0.1-0.1 0.3-0.2 0.5-0.2 0.2 0 0.3 0.1 0.4 0.2l2.6 4.8 4.8 2.6c0.1 0.1 0.2 0.3 0.2 0.5 0 0.1-0.1 0.3-0.2 0.4l-4.8 2.6-2.6 4.7c-0.1 0.2-0.3 0.3-0.5 0.3zm-6.5-8.1l4.1 2.3q0.2 0 0.2 0.2l2.3 4.1 2.2-4.1q0.1-0.1 0.2-0.2l4.1-2.3-4.1-2.2q-0.1-0.1-0.2-0.2l-2.2-4.1-2.2 4.1q-0.1 0.1-0.3 0.2z"/><path fill-rule="evenodd" class="a" d="m600.8 390.4c-0.1 0-0.3-0.1-0.4-0.2l-2.9-5.4-5.4-3c-0.2-0.1-0.3-0.3-0.3-0.4 0-0.2 0.1-0.4 0.3-0.5l5.4-2.9 2.9-5.4c0.1-0.1 0.3-0.2 0.5-0.2 0.2 0 0.3 0.1 0.4 0.2l3 5.4 5.3 3c0.2 0.1 0.3 0.2 0.3 0.4 0 0.2-0.1 0.4-0.3 0.5l-5.4 2.9-2.9 5.4c-0.1 0.1-0.3 0.2-0.5 0.2zm-7.4-9l4.7 2.6q0.1 0 0.2 0.2l2.5 4.7 2.6-4.7q0.1-0.2 0.2-0.2l4.7-2.6-4.7-2.6q-0.1-0.1-0.2-0.2l-2.5-4.7-2.6 4.7q-0.1 0.1-0.2 0.2c0 0-4.7 2.6-4.7 2.6z"/><path class="c" d="m65.2 255.6c-0.2 0-0.5-0.3-0.5-0.5v-5.6c0-0.2 0.3-0.5 0.5-0.5 0.3 0 0.5 0.3 0.5 0.5v5.6c0 0.3-0.2 0.5-0.5 0.5z"/><path class="c" d="m65.2 269.8c-0.2 0-0.5-0.3-0.5-0.5v-5.6c0-0.2 0.3-0.5 0.5-0.5 0.3 0 0.5 0.3 0.5 0.5v5.6c0 0.2-0.2 0.5-0.5 0.5z"/><path class="c" d="m75.1 259.9h-5.5c-0.3 0-0.5-0.2-0.5-0.5 0-0.3 0.2-0.5 0.5-0.5h5.5c0.3 0 0.5 0.2 0.5 0.5 0 0.3-0.2 0.5-0.5 0.5z"/><path class="c" d="m60.9 259.9h-5.5c-0.3 0-0.5-0.2-0.5-0.5 0-0.3 0.2-0.5 0.5-0.5h5.5c0.3 0 0.5 0.2 0.5 0.5 0 0.3-0.2 0.5-0.5 0.5z"/><path class="d" d="m58.3 266.4l3.9-3.9"/><path class="c" d="m58.3 266.9q-0.2 0-0.4-0.2c-0.2-0.2-0.2-0.5 0-0.7l3.9-3.9c0.2-0.2 0.5-0.2 0.7 0 0.2 0.2 0.2 0.5 0 0.7l-3.9 3.9q-0.1 0.2-0.3 0.2z"/><path class="d" d="m68.3 256.3l3.9-3.9"/><path class="c" d="m68.3 256.8q-0.2 0-0.3-0.1c-0.2-0.2-0.2-0.5 0-0.7l3.9-3.9c0.2-0.2 0.5-0.2 0.7 0 0.2 0.2 0.2 0.5 0 0.7l-3.9 3.9q-0.2 0.1-0.4 0.1z"/><path class="d" d="m58.3 252.4l3.9 3.9"/><path class="c" d="m62.2 256.8q-0.2 0-0.4-0.1l-3.9-3.9c-0.2-0.2-0.2-0.5 0-0.7 0.2-0.2 0.5-0.2 0.7 0l3.9 3.9c0.2 0.2 0.2 0.5 0 0.7q-0.1 0.1-0.3 0.1z"/><path class="d" d="m68.3 262.5l3.9 3.9"/><path class="c" d="m72.2 266.9q-0.2 0-0.3-0.2l-4-3.9c-0.2-0.2-0.2-0.5 0-0.7 0.3-0.2 0.6-0.2 0.8 0l3.9 3.9c0.2 0.2 0.2 0.5 0 0.7q-0.2 0.2-0.4 0.2z"/><path class="c" d="m647.2 262c-0.3 0-0.5-0.2-0.5-0.5v-5.5c0-0.3 0.2-0.5 0.5-0.5 0.3 0 0.5 0.2 0.5 0.5v5.5c0 0.3-0.2 0.5-0.5 0.5z"/><path class="c" d="m647.2 276.2c-0.3 0-0.5-0.2-0.5-0.5v-5.5c0-0.3 0.2-0.5 0.5-0.5 0.3 0 0.5 0.2 0.5 0.5v5.5c0 0.3-0.2 0.5-0.5 0.5z"/><path class="c" d="m657.1 266.3h-5.6c-0.2 0-0.5-0.2-0.5-0.5 0-0.3 0.3-0.5 0.5-0.5h5.6c0.3 0 0.5 0.2 0.5 0.5 0 0.3-0.3 0.5-0.5 0.5z"/><path class="c" d="m642.9 266.3h-5.6c-0.2 0-0.5-0.2-0.5-0.5 0-0.3 0.3-0.5 0.5-0.5h5.6c0.3 0 0.5 0.2 0.5 0.5 0 0.3-0.3 0.5-0.5 0.5z"/><path class="d" d="m640.2 272.8l3.9-3.9"/><path class="c" d="m640.2 273.3q-0.2 0-0.3-0.1c-0.2-0.2-0.2-0.6 0-0.8l3.9-3.9c0.2-0.2 0.5-0.2 0.7 0 0.2 0.2 0.2 0.5 0 0.7l-3.9 4q-0.2 0.1-0.4 0.1z"/><path class="d" d="m650.3 262.8l3.9-3.9"/><path class="c" d="m650.3 263.3q-0.2 0-0.4-0.2c-0.2-0.2-0.2-0.5 0-0.7l3.9-3.9c0.2-0.2 0.5-0.2 0.7 0 0.2 0.2 0.2 0.5 0 0.7l-3.9 3.9q-0.1 0.2-0.3 0.2z"/><path class="d" d="m640.2 258.9l3.9 3.9"/><path class="c" d="m644.1 263.3q-0.2 0-0.3-0.2l-3.9-3.9c-0.2-0.2-0.2-0.5 0-0.7 0.2-0.2 0.5-0.2 0.7 0l3.9 3.9c0.2 0.2 0.2 0.5 0 0.7q-0.2 0.2-0.4 0.2z"/><path class="d" d="m650.3 268.9l3.9 3.9"/><path class="c" d="m654.2 273.3q-0.2 0-0.4-0.1l-3.9-4c-0.2-0.2-0.2-0.5 0-0.7 0.2-0.2 0.5-0.2 0.7 0l3.9 3.9c0.2 0.2 0.2 0.6 0 0.8q-0.1 0.1-0.3 0.1z"/><path class="c" d="m511.6 64c-0.3 0-0.5-0.2-0.5-0.5v-5.5c0-0.3 0.2-0.5 0.5-0.5 0.3 0 0.5 0.2 0.5 0.5v5.5c0 0.3-0.2 0.5-0.5 0.5z"/><path class="c" d="m511.6 78.2c-0.3 0-0.5-0.2-0.5-0.5v-5.5c0-0.3 0.2-0.5 0.5-0.5 0.3 0 0.5 0.2 0.5 0.5v5.5c0 0.3-0.2 0.5-0.5 0.5z"/><path class="c" d="m521.5 68.4h-5.6c-0.3 0-0.5-0.3-0.5-0.5 0-0.3 0.2-0.5 0.5-0.5h5.6c0.2 0 0.5 0.2 0.5 0.5 0 0.2-0.3 0.5-0.5 0.5z"/><path class="c" d="m507.3 68.4h-5.6c-0.3 0-0.5-0.3-0.5-0.5 0-0.3 0.2-0.5 0.5-0.5h5.5c0.3 0 0.5 0.2 0.5 0.5 0 0.2-0.2 0.5-0.5 0.5z"/><path class="d" d="m504.6 74.8l3.9-3.9"/><path class="c" d="m504.6 75.3q-0.2 0-0.3-0.1c-0.2-0.2-0.2-0.5 0-0.7l3.9-3.9c0.2-0.2 0.5-0.2 0.7 0 0.2 0.2 0.2 0.5 0 0.7l-3.9 3.9q-0.2 0.1-0.4 0.1z"/><path class="d" d="m514.6 64.8l4-3.9"/><path class="c" d="m514.6 65.3q-0.2 0-0.3-0.2c-0.2-0.2-0.2-0.5 0-0.7l3.9-3.9c0.2-0.2 0.5-0.2 0.7 0 0.2 0.2 0.2 0.5 0 0.7l-3.9 3.9q-0.1 0.2-0.4 0.2z"/><path class="d" d="m504.6 60.9l3.9 3.9"/><path class="c" d="m508.5 65.3q-0.2 0-0.3-0.2l-3.9-3.9c-0.2-0.2-0.2-0.5 0-0.7 0.2-0.2 0.5-0.2 0.7 0l3.9 3.9c0.2 0.2 0.2 0.5 0 0.7q-0.2 0.2-0.4 0.2z"/><path class="d" d="m514.6 70.9l4 3.9"/><path class="c" d="m518.6 75.3q-0.2 0-0.4-0.1l-3.9-3.9c-0.2-0.2-0.2-0.5 0-0.7 0.2-0.2 0.5-0.2 0.7 0l3.9 3.9c0.2 0.2 0.2 0.5 0 0.7q-0.1 0.1-0.3 0.1z"/><path fill-rule="evenodd" class="a" d="m101.1 212.4c-2.1 0-3.9-1.8-3.9-3.9 0-2.1 1.8-3.9 3.9-3.9 2.1 0 3.9 1.8 3.9 3.9 0 2.1-1.8 3.9-3.9 3.9zm0-6.8c-1.6 0-2.9 1.3-2.9 2.9 0 1.6 1.3 2.9 2.9 2.9 1.6 0 2.9-1.3 2.9-2.9 0-1.6-1.3-2.9-2.9-2.9z"/><path fill-rule="evenodd" class="e" d="m656.7 225.5c-1.6 0-3-1.3-3-2.9 0-1.7 1.4-3 3-3 1.6 0 2.9 1.3 2.9 3 0 1.6-1.3 2.9-2.9 2.9zm0-4.9c-1.1 0-2 0.9-2 2 0 1 0.9 1.9 2 1.9 1 0 1.9-0.9 1.9-1.9 0-1.1-0.9-2-1.9-2z"/><path fill-rule="evenodd" class="b" d="m566.5 103.9c-2.2 0-3.9-1.8-3.9-3.9 0-2.2 1.7-3.9 3.9-3.9 2.1 0 3.9 1.7 3.9 3.9 0 2.1-1.8 3.9-3.9 3.9zm0-6.8c-1.6 0-2.9 1.3-2.9 2.9 0 1.6 1.3 2.9 2.9 2.9 1.6 0 2.9-1.3 2.9-2.9 0-1.6-1.3-2.9-2.9-2.9z"/><path fill-rule="evenodd" class="b" d="m68.5 104.6c-1.4 0-2.5-1.1-2.5-2.5 0-1.4 1.1-2.5 2.5-2.5 1.3 0 2.5 1.1 2.5 2.5 0 1.4-1.2 2.5-2.5 2.5zm0-4c-0.8 0-1.5 0.7-1.5 1.5 0 0.9 0.6 1.5 1.5 1.5 0.8 0 1.5-0.6 1.5-1.5 0-0.8-0.7-1.5-1.5-1.5z"/><path fill-rule="evenodd" class="b" d="m304.9 48.4c-1.4 0-2.5-1.2-2.5-2.5 0-1.4 1.1-2.5 2.5-2.5 1.3 0 2.4 1.1 2.4 2.5 0 1.3-1.1 2.5-2.4 2.5zm0-4c-0.8 0-1.5 0.7-1.5 1.5 0 0.8 0.6 1.5 1.5 1.5 0.8 0 1.4-0.7 1.4-1.5 0-0.8-0.6-1.5-1.4-1.5z"/><path class="c" d="m305.8 152.9l6.6-11.8 3.3-5.9 1.6-2.9 0.2-0.4 1.6 1.8 4.4 5.2 8.9 10.5 8.9 10.5 4.5 5.2 0.2 0.3 0.2 0.2 0.1 0.2q0.2 0.2 0.4 0.3c0.6 0.5 1.3 0.9 2.1 1.1 1.5 0.4 3.1 0.2 4.5-0.5 0.6-0.4 1.2-0.9 1.7-1.4q0.1-0.2 0.2-0.4l0.2-0.2 0.2-0.4 0.8-1.4c4.7-7.7 9.3-15.5 13.9-23.2l7-11.6 2.1-3.6 9.2 5-2.6-21.4-20.3 9.6 8.5 4.1-2.3 3.9-7.1 11.5c-4.7 7.7-9.4 15.4-14.1 23.1l-0.4 0.7-3.8-4.4-8.8-10.5-8.9-10.5-4.5-5.3-2.2-2.6-0.3-0.3-0.1-0.2-0.1-0.1-0.2-0.2c-0.6-0.5-1.2-1-2-1.2-1.5-0.6-3.2-0.5-4.6 0.2-0.8 0.3-1.4 0.8-1.8 1.4q-0.2 0.2-0.3 0.4l-0.2 0.2v0.1l-0.2 0.4-0.8 1.5-1.6 2.9-3.3 5.9-6.5 11.8"/><path class="c" d="m350.4 167.9q-0.9 0-1.8-0.3c-0.8-0.2-1.5-0.6-2.2-1.1q-0.2-0.2-0.4-0.4l-0.6-0.7-27.8-32.7-11.3 20.4-0.9-0.5 12.1-21.6 29.2 34.4q0.2 0.2 0.4 0.3c0.5 0.5 1.1 0.8 1.8 1 1.4 0.4 2.9 0.2 4.1-0.4 0.6-0.4 1.2-0.8 1.6-1.3q0.1-0.2 0.2-0.4l1.2-2c3.3-5.4 6.6-10.8 9.7-16.1q2.1-3.6 4.2-7.1l9.3-15.6 8.8 4.8-2.4-19.8-18.8 8.9 8.2 3.9-9.8 15.9q-2.1 3.5-4.3 7c-3.2 5.2-6.5 10.7-9.7 16.1l-0.8 1.2-29.4-34.6c-0.5-0.4-1.1-0.8-1.7-1.1-1.4-0.5-3-0.4-4.3 0.2-0.7 0.4-1.2 0.8-1.6 1.3q-0.2 0.2-0.3 0.4l-0.4 0.6-12.1 22.1-0.9-0.4 12.5-22.8c0.2-0.2 0.3-0.4 0.4-0.5 0.5-0.6 1.2-1.2 2-1.6 1.5-0.7 3.4-0.8 5-0.2 0.8 0.3 1.6 0.7 2.1 1.3l0.8 0.9 27.8 32.7v-0.1c3.3-5.3 6.6-10.8 9.8-16q2.2-3.5 4.3-7.1l9.2-14.9-9.1-4.3 22-10.4 2.8 23.1-9.7-5.2-8.8 14.7q-2.1 3.5-4.2 7.1c-3.2 5.3-6.4 10.7-9.7 16.1l-1.2 2q-0.2 0.3-0.3 0.5c-0.5 0.6-1.1 1.1-1.9 1.5-0.9 0.5-2 0.8-3 0.8z"/><path class="a" d="m254.3 134v-21.9c-12.1 0-21.9 9.8-21.9 21.9 0 12.1 9.8 21.9 21.9 21.9 12.1 0 22-9.8 22-21.9z"/><path fill-rule="evenodd" class="c" d="m254.3 156.4c-12.3 0-22.4-10-22.4-22.4 0-12.3 10.1-22.4 22.4-22.4 0.3 0 0.5 0.2 0.5 0.5v21.4h21.5c0.2 0 0.5 0.2 0.5 0.5 0 12.4-10.1 22.4-22.5 22.4zm-0.5-43.8c-11.5 0.3-20.9 9.8-20.9 21.4 0 11.7 9.6 21.4 21.4 21.4 11.9 0 21.2-9.3 21.4-20.9h-21.4c-0.2 0-0.5-0.2-0.5-0.5z"/><path class="f" d="m272 128.1c0-6.5-5.3-11.7-11.8-11.7v11.7z"/><path fill-rule="evenodd" class="c" d="m272.5 128.6h-12.8v-12.7h0.5c6.8 0 12.3 5.5 12.3 12.2zm-11.8-1h10.8c-0.3-5.8-4.9-10.5-10.8-10.7z"/><path class="f" d="m307.3 152.5l6.5-11.8 3.3-5.8 1.6-3 0.3-0.4 1.5 1.8 4.4 5.3 8.9 10.4 8.9 10.5 4.5 5.3 0.3 0.3 0.1 0.1 0.2 0.2q0.1 0.2 0.4 0.4c0.5 0.4 1.2 0.8 2 1 1.5 0.4 3.1 0.2 4.5-0.5 0.7-0.3 1.3-0.8 1.7-1.4q0.1-0.2 0.3-0.4l0.1-0.2 0.2-0.3 0.9-1.5c4.7-7.7 9.2-15.4 13.9-23.2l6.9-11.6 2.1-3.6 9.3 5.1-2.7-21.5-20.3 9.6 8.6 4.2-2.4 3.8-7.1 11.6c-4.7 7.7-9.4 15.3-14.1 23.1l-0.4 0.6-3.7-4.4-8.9-10.5-8.9-10.5-4.4-5.2-2.3-2.7-0.3-0.3-0.1-0.1-0.1-0.2-0.2-0.2c-0.5-0.5-1.2-0.9-2-1.2-1.5-0.5-3.2-0.5-4.6 0.2-0.7 0.4-1.4 0.9-1.8 1.4q-0.2 0.3-0.3 0.5l-0.1 0.2-0.1 0.1-0.2 0.3-0.8 1.5-1.6 3-3.3 5.8-6.5 11.8"/><path class="c" d="m351.9 167.5q-0.9 0-1.8-0.2c-0.8-0.2-1.6-0.6-2.2-1.1q-0.3-0.2-0.5-0.4l-0.6-0.7-27.7-32.7-11.4 20.3-0.9-0.4 12.1-21.7 29.3 34.5q0.1 0.1 0.3 0.3c0.5 0.4 1.2 0.7 1.8 0.9 1.4 0.4 2.9 0.2 4.2-0.4 0.6-0.3 1.1-0.8 1.5-1.3q0.1-0.2 0.3-0.4l1.1-1.9c3.3-5.4 6.5-10.8 9.7-16.1q2.1-3.6 4.2-7.1l9.4-15.6 8.8 4.8-2.5-19.8-18.8 8.8 8.2 4-9.7 15.8q-2.2 3.6-4.4 7.1c-3.2 5.2-6.5 10.7-9.7 16l-0.8 1.3-29.4-34.6c-0.4-0.5-1.1-0.9-1.7-1.1-1.4-0.5-3-0.4-4.3 0.2-0.7 0.3-1.2 0.8-1.6 1.3q-0.2 0.1-0.3 0.3l-0.4 0.7-12.1 22.1-0.9-0.5 12.6-22.8q0.1-0.2 0.3-0.5c0.5-0.6 1.2-1.1 2-1.5 1.5-0.8 3.4-0.9 5-0.3 0.8 0.3 1.6 0.8 2.1 1.4l0.8 0.8 27.8 32.8v-0.1c3.2-5.4 6.6-10.8 9.8-16q2.1-3.6 4.3-7.1l9.2-14.9-9.1-4.4 22-10.3 2.8 23.1-9.7-5.3-8.8 14.8q-2.1 3.5-4.3 7.1c-3.1 5.3-6.4 10.7-9.6 16.1l-1.2 2q-0.2 0.2-0.3 0.4c-0.5 0.6-1.1 1.2-1.9 1.6-0.9 0.5-2 0.7-3 0.7z"/><path class="b" d="m408.4 97.6h12.4v48.7h-12.3z"/><path fill-rule="evenodd" class="c" d="m421.3 146.8h-13.3v-49.7h13.3zm-12.3-1h11.3v-47.8h-11.3z"/><path class="d" d="m428.3 75.9h12.4v70.4h-12.4z"/><path fill-rule="evenodd" class="c" d="m440.7 146.8h-12.4c-0.2 0-0.5-0.2-0.5-0.5v-70.4c0-0.3 0.3-0.5 0.5-0.5h12.4c0.3 0 0.5 0.2 0.5 0.5v70.4c0 0.3-0.2 0.5-0.5 0.5zm-11.9-1h11.4v-69.4h-11.4z"/><path class="b" d="m446.2 105.8h12.4v40.5h-12.4z"/><path fill-rule="evenodd" class="c" d="m459.1 146.8h-13.4v-41.5h13.4zm-12.4-1h11.4v-39.6h-11.4z"/><path class="c" d="m239.8 94.2q-0.2 0-0.4-0.1l-16.4-17c-0.2-0.2-0.2-0.5 0-0.7 0.2-0.2 0.5-0.2 0.7 0l16.1 16.6 17.7-16.6c0.2-0.2 0.5-0.2 0.7 0l21.1 16.4c0.2 0.2 0.3 0.5 0.1 0.7-0.2 0.2-0.5 0.3-0.7 0.1l-20.8-16.2-17.8 16.7q-0.1 0.1-0.3 0.1z"/><path class="b" d="m227.9 76.8c0 2.5-2 4.5-4.5 4.5-2.5 0-4.5-2-4.5-4.5 0-2.5 2-4.5 4.5-4.5 2.5 0 4.5 2 4.5 4.5z"/><path fill-rule="evenodd" class="c" d="m223.4 81.8c-2.8 0-5-2.3-5-5 0-2.8 2.2-5 5-5 2.7 0 5 2.2 5 5 0 2.7-2.3 5-5 5zm0-9c-2.2 0-4 1.8-4 4 0 2.2 1.8 4 4 4 2.2 0 4-1.8 4-4 0-2.2-1.8-4-4-4z"/><path class="f" d="m262.3 76.8c0 2.5-2 4.5-4.5 4.5-2.4 0-4.4-2-4.4-4.5 0-2.5 2-4.5 4.4-4.5 2.5 0 4.5 2 4.5 4.5z"/><path fill-rule="evenodd" class="c" d="m257.8 81.8c-2.7 0-5-2.3-5-5 0-2.8 2.3-5 5-5 2.8 0 5 2.2 5 5 0 2.7-2.2 5-5 5zm0-9c-2.2 0-4 1.8-4 4 0 2.2 1.8 4 4 4 2.2 0 4-1.8 4-4 0-2.2-1.8-4-4-4z"/><path class="f" d="m244.3 93.2c0 2.5-2 4.5-4.5 4.5-2.5 0-4.5-2-4.5-4.5 0-2.5 2-4.5 4.5-4.5 2.5 0 4.5 2 4.5 4.5z"/><path fill-rule="evenodd" class="c" d="m239.8 98.2c-2.8 0-5-2.3-5-5 0-2.8 2.3-5 5-5 2.8 0 5 2.3 5 5 0 2.8-2.2 5-5 5zm0-9c-2.2 0-4 1.8-4 4 0 2.2 1.8 4 4 4 2.2 0 4-1.8 4-4 0-2.2-1.8-4-4-4z"/><path class="d" d="m318.3 86h-2.6c-1.1-6.6-6.8-11.6-13.6-11.6-6.9 0-12.6 5-13.7 11.6h-3.9c-5.9 0-10.6 5.1-10.6 11.5 0 6.4 4.7 11.5 10.6 11.5h33.7c5.9 0 10.6-5.1 10.6-11.5 0-6.4-4.7-11.5-10.6-11.5z"/><path fill-rule="evenodd" class="c" d="m318.3 109.5h-33.8c-6.1 0-11.1-5.4-11.1-12 0-6.7 5-12 11.1-12h3.5c1.3-6.8 7.2-11.6 14.1-11.6 6.9 0 12.7 4.8 14.1 11.6h2.1c6.1 0 11 5.3 11 12 0 6.6-4.9 12-11.1 12zm-33.7-23c-5.6 0-10.1 4.9-10.1 11 0 6.1 4.5 11 10.1 11h33.7c5.6 0 10.1-4.9 10.1-11 0-6.1-4.5-11-10.1-11h-2.5c-0.2 0-0.4-0.2-0.4-0.5-1.1-6.4-6.7-11.1-13.2-11.1-6.6 0-12.1 4.7-13.2 11.1-0.1 0.3-0.3 0.5-0.5 0.5z"/><path class="a" d="m388.2 92.1h-16.7q-0.3 0-0.5 0.2l-10.9 9.9c-0.5 0.4-1.3 0.1-1.3-0.6v-8.7c0-0.4-0.3-0.8-0.8-0.8h-10.5c-0.4 0-0.8-0.3-0.8-0.8v-27.7c0-0.5 0.4-0.8 0.8-0.8h40.7c0.4 0 0.8 0.3 0.8 0.8v27.7c0 0.5-0.4 0.8-0.8 0.8z"/><path fill-rule="evenodd" class="c" d="m359.6 102.9q-0.3 0-0.6-0.2c-0.5-0.2-0.8-0.6-0.8-1.2l0.1-8.6q0-0.1-0.1-0.2-0.1-0.1-0.2-0.1h-10.5c-0.7 0-1.3-0.6-1.3-1.3v-27.8c0-0.7 0.6-1.3 1.3-1.3h40.6c0.8 0 1.3 0.6 1.3 1.3v27.8c0 0.7-0.5 1.3-1.3 1.3h-16.6q-0.1 0-0.2 0.1l-10.9 9.8q-0.4 0.4-0.8 0.4zm-12.1-39.6c-0.1 0-0.3 0.1-0.3 0.3v27.7c0 0.2 0.2 0.3 0.3 0.3h10.5q0.6 0 0.9 0.4c0.3 0.3 0.4 0.6 0.4 0.9v8.7c0 0.1 0.1 0.2 0.1 0.2 0.1 0.1 0.2 0.1 0.4 0l10.9-9.9q0.3-0.3 0.8-0.3h16.7c0.1 0 0.3-0.1 0.3-0.3v-27.8c0-0.1-0.2-0.3-0.3-0.3h-40.7z"/><path fill-rule="evenodd" class="d" d="m358.6 80.8c-1.8 0-3.1-1.3-3.1-3 0-1.8 1.4-3.1 3-3.1 1.7 0 3.1 1.4 3.1 3.1 0 1.7-1.4 3-3.1 3zm0-5.1c-1.1 0-2 0.9-2 2.1 0 1.1 0.9 2 2 2 1.2 0 2.1-0.9 2.1-2 0-1.2-0.9-2.1-2.1-2.1z"/><path fill-rule="evenodd" class="d" d="m368.2 80.8c-1.7 0-3.1-1.3-3.1-3 0-1.8 1.4-3.1 3.1-3.1 1.7 0 3 1.4 3 3.1 0 1.7-1.3 3-3 3zm0-5.1c-1.2 0-2.1 0.9-2.1 2.1 0 1.1 0.9 2 2.1 2 1.1 0 2-0.9 2-2 0-1.2-0.9-2.1-2-2.1z"/><path fill-rule="evenodd" class="d" d="m377.7 80.8c-1.7 0-3.1-1.3-3.1-3 0-1.8 1.4-3.1 3.1-3.1 1.7 0 3 1.4 3 3.1 0 1.7-1.3 3-3 3zm0-5.1c-1.2 0-2.1 0.9-2.1 2.1 0 1.1 0.9 2 2.1 2 1.1 0 2-0.9 2-2 0-1.2-0.9-2.1-2-2.1z"/><path class="a" d="m167.7 123.3h15.8q0.3 0.1 0.5 0.2l10.3 9.4c0.5 0.4 1.3 0 1.3-0.6l-0.1-8.2c0-0.4 0.4-0.8 0.8-0.8h9.9c0.4 0 0.8-0.3 0.8-0.7v-26.3c0-0.4-0.4-0.8-0.8-0.8h-38.5c-0.4 0-0.7 0.4-0.7 0.8v26.3c0 0.4 0.3 0.7 0.7 0.7z"/><path fill-rule="evenodd" class="c" d="m194.8 133.6q-0.4 0-0.8-0.4l-10.4-9.3c0 0-0.1-0.1-0.1-0.1h-15.8c-0.7 0-1.2-0.5-1.2-1.2v-26.3c0-0.7 0.5-1.3 1.2-1.3h38.5c0.7 0 1.3 0.6 1.3 1.3v26.3c0 0.7-0.6 1.2-1.3 1.2h-9.9c-0.1 0-0.2 0.1-0.2 0.1-0.1 0.1-0.1 0.1-0.1 0.2l0.1 8.2c0 0.5-0.3 0.9-0.8 1.1q-0.2 0.2-0.5 0.2zm-27.1-37.6c-0.1 0-0.2 0.1-0.2 0.3v26.3c0 0.1 0.1 0.3 0.2 0.3h15.8c0.3 0 0.6 0.1 0.8 0.3l10.4 9.3c0.1 0.1 0.2 0.1 0.2 0 0.1 0 0.2 0 0.2-0.2l-0.1-8.2c0-0.3 0.2-0.6 0.4-0.9q0.4-0.3 0.9-0.3h9.9c0.2 0 0.3-0.2 0.3-0.3v-26.3c0-0.1-0.1-0.3-0.3-0.3z"/><path fill-rule="evenodd" class="d" d="m195.8 112.7c-1.6 0-3-1.3-3-3 0-1.6 1.3-2.9 3-2.9 1.6 0 2.9 1.3 2.9 2.9 0 1.7-1.3 3-2.9 3zm0-4.9c-1.1 0-2 0.9-2 1.9 0 1.1 0.9 2 2 2 1.1 0 1.9-0.9 1.9-2 0-1-0.8-1.9-1.9-1.9z"/><path fill-rule="evenodd" class="d" d="m186.7 112.7c-1.7 0-3-1.3-3-3 0-1.6 1.3-2.9 3-2.9 1.6 0 2.9 1.3 2.9 2.9 0 1.7-1.3 3-2.9 3zm0-4.9c-1.1 0-2 0.9-2 1.9 0 1.1 0.9 2 2 2 1 0 1.9-0.9 1.9-2 0-1-0.9-1.9-1.9-1.9z"/><path fill-rule="evenodd" class="d" d="m177.7 112.7c-1.7 0-3-1.3-3-3 0-1.6 1.3-2.9 3-2.9 1.6 0 2.9 1.3 2.9 2.9 0 1.7-1.3 3-2.9 3zm0-4.9c-1.1 0-2 0.9-2 1.9 0 1.1 0.9 2 2 2 1 0 1.9-0.9 1.9-2 0-1-0.9-1.9-1.9-1.9z"/><path class="a" d="m520.8 122.5v15.3c0 0.3 0.3 0.6 0.6 0.6 9.1-0.4 16.2-8.4 15.2-17.7-0.8-7.3-6.7-13.2-14-14-9.4-1.1-17.4 6.1-17.7 15.2 0 0.3 0.2 0.6 0.5 0.6h15.4z"/><path fill-rule="evenodd" class="c" d="m521.4 138.9q-0.5 0-0.8-0.3c-0.2-0.3-0.3-0.5-0.3-0.8v-14.8h-14.9c-0.2 0-0.5-0.2-0.7-0.4q-0.3-0.3-0.3-0.7c0.1-4.6 2.2-8.9 5.7-11.9 3.4-3 7.9-4.4 12.5-3.9 7.6 0.9 13.7 7 14.5 14.5 0.5 4.6-0.9 9.1-3.9 12.6-3 3.4-7.3 5.5-11.8 5.7q0-0.1 0 0zm-0.6-31.9c-3.8 0-7.3 1.3-10.1 3.8-3.2 2.8-5.2 6.8-5.3 11.1l15.4 0.1c0.2 0 0.5 0.2 0.5 0.5v15.3l0.1 0.6v-0.5c4.2-0.2 8.3-2.1 11.1-5.4 2.8-3.3 4.1-7.4 3.6-11.8-0.8-7.1-6.5-12.8-13.6-13.5q-0.9-0.1-1.7-0.2z"/><path class="f" d="m500.6 126.2c0.4 8.9 7.5 16 16.4 16.4 0.4 0 0.7-0.3 0.7-0.7v-15.7c0-0.4-0.3-0.7-0.6-0.7h-15.8c-0.4 0-0.7 0.3-0.7 0.7z"/><path fill-rule="evenodd" class="c" d="m517.1 143.1q0 0-0.1 0c-9.1-0.4-16.5-7.8-16.9-16.9 0-0.3 0.1-0.6 0.4-0.9 0.2-0.2 0.5-0.3 0.8-0.3h15.8c0.6 0 1.2 0.5 1.2 1.2v15.7c0 0.3-0.2 0.6-0.4 0.9-0.2 0.2-0.5 0.3-0.8 0.3zm-16-16.9c0.4 8.6 7.4 15.6 16 15.9q0.1 0 0.1 0 0.1-0.1 0.1-0.2v-15.7c0-0.1-0.1-0.2-0.2-0.2h-15.8q-0.1 0-0.1 0.1-0.1 0-0.1 0.1z"/><path class="f" d="m481.7 111.5c-6.7 0-12.1-5.4-12.1-12.1 0-6.7 5.4-12.1 12.1-12.1 6.6 0 12.1 5.4 12.1 12.1 0 6.7-5.5 12.1-12.1 12.1z"/><path fill-rule="evenodd" class="c" d="m481.7 112c-7 0-12.6-5.7-12.6-12.6 0-6.9 5.6-12.6 12.6-12.6 6.9 0 12.6 5.7 12.6 12.6 0 6.9-5.7 12.6-12.6 12.6zm0-24.2c-6.4 0-11.6 5.2-11.6 11.6 0 6.4 5.2 11.6 11.6 11.6 6.4 0 11.6-5.2 11.6-11.6 0-6.4-5.2-11.6-11.6-11.6z"/><path class="a" d="m481.4 102.8c-0.3 0-0.6-0.1-0.8-0.3l-4.3-4.3c-0.2-0.2-0.2-0.5 0-0.7 0.2-0.2 0.5-0.2 0.7 0l4.3 4.3c0.1 0.1 0.2 0.1 0.3 0l11.3-11.3c0.2-0.2 0.5-0.2 0.7 0 0.2 0.2 0.2 0.5 0 0.7l-11.3 11.3q-0.4 0.3-0.9 0.3z"/><path class="c" d="m356.6 340.6c0 3.7-3 6.8-6.7 6.8-3.8 0-6.8-3.1-6.8-6.8 0-3.8 3-6.8 6.8-6.8 3.7 0 6.7 3 6.7 6.8z"/><path fill-rule="evenodd" class="d" d="m349.9 347.9c-4 0-7.3-3.3-7.3-7.3 0-4 3.3-7.3 7.3-7.3 4 0 7.2 3.3 7.2 7.3 0 4-3.2 7.3-7.2 7.3zm0-13.6c-3.5 0-6.3 2.8-6.3 6.3 0 3.4 2.8 6.3 6.3 6.3 3.4 0 6.2-2.9 6.2-6.3 0-3.5-2.8-6.3-6.2-6.3z"/><path class="g" d="m500 338h-300c-5.7 0-10.3-4.3-10.3-9.6v-174.1c0-5.3 4.6-9.7 10.3-9.7h300c5.7 0 10.3 4.4 10.3 9.7l-0.1 174.1c0 5.3-4.6 9.6-10.2 9.6z"/><path fill-rule="evenodd" class="c" d="m500 338.5h-300c-5.9 0-10.8-4.6-10.8-10.1v-174.1c0-5.6 4.9-10.2 10.8-10.2h300c5.9 0 10.8 4.6 10.8 10.2l-0.1 174.1c0 5.5-4.8 10.1-10.7 10.1zm-300-193.3c-5.4 0-9.8 4-9.8 9.1v174.1c0 5 4.4 9.1 9.8 9.1h300c5.4 0 9.7-4.1 9.7-9.1v-174.1c0-5.1-4.3-9.1-9.7-9.1z"/><path class="d" d="m205 160.9h286.5v165.5h-286.5z"/><path fill-rule="evenodd" class="c" d="m492 326.9h-287.5v-166.5h287.5zm-286.5-1h285.5v-164.6h-285.5z"/><path class="h" d="m352.8 152.2c-0.1 1.5-1.3 2.7-2.8 2.7-1.5 0-2.8-1.2-2.8-2.7 0-1.6 1.3-2.8 2.8-2.8 1.5 0 2.7 1.2 2.7 2.8z"/><path fill-rule="evenodd" class="c" d="m350 155.4c-1.8 0-3.3-1.5-3.3-3.3 0-1.7 1.5-3.2 3.3-3.2 1.8 0 3.3 1.5 3.3 3.3 0 1.7-1.5 3.2-3.3 3.2zm0-5.5c-1.2 0-2.3 1-2.3 2.3 0 1.2 1.1 2.2 2.3 2.2 1.2 0 2.3-1 2.3-2.2 0-1.3-1.1-2.3-2.3-2.3z"/><path class="g" d="m387.7 351.8l-3.7-0.1v-0.5l-34.8 0.3-34.8-0.3v0.5l-3.7 0.1c-0.6 8.9-3.3 45.1-7.2 55.2h91.4c-3.9-10.1-6.6-46.3-7.2-55.2z"/><path fill-rule="evenodd" class="c" d="m394.9 407.5h-91.4c-0.2 0-0.3-0.1-0.4-0.3q-0.1-0.2-0.1-0.4c3.8-9.8 6.5-44.6 7.2-55.1 0-0.2 0.2-0.4 0.5-0.4l3.2-0.1q0-0.2 0.1-0.4 0.2-0.1 0.4-0.1l34.8 0.3 34.8-0.3q0.2 0 0.4 0.1 0.1 0.2 0.1 0.4l3.2 0.1c0.3 0 0.5 0.2 0.5 0.4 0.7 10.5 3.4 45.4 7.2 55.1 0 0.1 0 0.3-0.1 0.5-0.1 0.1-0.2 0.2-0.4 0.2zm-0.7-1c-3.7-10.6-6.2-43.5-7-54.2l-3.2-0.1c-0.3 0-0.5-0.2-0.5-0.5l-34.3 0.3-34.3-0.3c0 0.3-0.3 0.5-0.5 0.5l-3.3 0.1c-0.7 10.7-3.3 43.6-6.9 54.2z"/><path fill-rule="evenodd" class="c" d="m394.9 407.5h-91.4c-0.2 0-0.3-0.1-0.4-0.3q-0.1-0.2-0.1-0.4c3.8-9.8 6.5-44.6 7.2-55.1 0-0.2 0.2-0.4 0.5-0.4l3.2-0.1q0-0.2 0.1-0.4 0.2-0.1 0.4-0.1l34.8 0.3 34.8-0.3q0.2 0 0.4 0.1 0.1 0.2 0.1 0.4l3.2 0.1c0.3 0 0.5 0.2 0.5 0.4 0.7 10.5 3.4 45.4 7.2 55.1 0 0.1 0 0.3-0.1 0.5-0.1 0.1-0.2 0.2-0.4 0.2zm-0.7-1c-3.7-10.6-6.2-43.5-7-54.2l-3.2-0.1c-0.3 0-0.5-0.2-0.5-0.5l-34.3 0.3-34.3-0.3c0 0.3-0.3 0.5-0.5 0.5l-3.3 0.1c-0.7 10.7-3.3 43.6-6.9 54.2z"/><path class="c" d="m189.6 326.8v21c0 5.7 4.6 10.3 10.3 10.3h299.9c5.7 0 10.3-4.6 10.3-10.3v-21z"/><path fill-rule="evenodd" class="c" d="m499.8 358.6h-299.9c-6 0-10.8-4.9-10.8-10.8v-21.6h321.5v21.6c0 5.9-4.8 10.8-10.8 10.8zm-309.7-31.3v20.5c0 5.4 4.4 9.8 9.8 9.8h299.9c5.4 0 9.8-4.4 9.8-9.8v-20.5z"/><path class="c" d="m356.6 340.6c0 3.7-3 6.8-6.7 6.8-3.8 0-6.8-3.1-6.8-6.8 0-3.8 3-6.8 6.8-6.8 3.7 0 6.7 3 6.7 6.8z"/><path fill-rule="evenodd" class="d" d="m349.9 347.9c-4 0-7.3-3.3-7.3-7.3 0-4 3.3-7.3 7.3-7.3 4 0 7.2 3.3 7.2 7.3 0 4-3.2 7.3-7.2 7.3zm0-13.6c-3.5 0-6.3 2.8-6.3 6.3 0 3.4 2.8 6.3 6.3 6.3 3.4 0 6.2-2.9 6.2-6.3 0-3.5-2.8-6.3-6.2-6.3z"/><path class="c" d="m286.1 400.1h127.5c8.2 0 14.9 6.7 14.9 14.9h-157.3c0-8.2 6.7-14.9 14.9-14.9z"/><path fill-rule="evenodd" class="c" d="m428.5 415.5h-157.3c-0.2 0-0.5-0.2-0.5-0.5 0-8.5 6.9-15.4 15.4-15.4h127.5c8.5 0 15.4 6.9 15.4 15.4 0 0.3-0.2 0.5-0.5 0.5zm-156.8-1h156.3c-0.3-7.7-6.6-13.9-14.4-13.9h-127.5c-7.7 0-14.1 6.2-14.4 13.9z"/><path class="i" d="m310.5 400.1h78.7c0 4.1-3.3 7.4-7.5 7.4h-63.7c-4.1 0-7.4-3.3-7.5-7.4z"/><path fill-rule="evenodd" class="c" d="m381.7 408h-63.7c-4.4 0-7.9-3.5-7.9-7.9 0-0.3 0.2-0.5 0.5-0.5h78.6c0.3 0 0.5 0.2 0.5 0.5 0 4.4-3.6 7.9-8 7.9zm-70.6-7.4c0.2 3.6 3.2 6.4 6.9 6.4h63.7c3.7 0 6.7-2.8 7-6.4 0 0-77.6 0-77.6 0z"/><path class="a" d="m381.6 186.8c0-2.1 1.7-3.8 3.8-3.8h77.3c2.1 0 3.7 1.7 3.7 3.8v114.3c0 2.1-1.6 3.8-3.7 3.8h-77.3c-2.1 0-3.8-1.7-3.8-3.8z"/><path fill-rule="evenodd" class="c" d="m462.7 305.4h-77.3c-2.4 0-4.3-1.9-4.3-4.3v-114.3c0-2.4 1.9-4.3 4.3-4.3h77.3c2.3 0 4.3 1.9 4.3 4.3v114.3c0 2.4-1.9 4.3-4.3 4.3zm-77.3-121.9c-1.8 0-3.3 1.5-3.3 3.3v114.3c0 1.8 1.5 3.3 3.3 3.3h77.3c1.8 0 3.3-1.5 3.3-3.3v-114.3c0-1.8-1.5-3.3-3.3-3.3z"/><path class="d" d="m391.9 196.9c0-1.6 1.3-2.9 2.9-2.9h22.4c1.6 0 2.9 1.3 2.9 2.9v22.4c0 1.6-1.3 2.9-2.9 2.9h-22.4c-1.6 0-2.9-1.3-2.9-2.9z"/><path fill-rule="evenodd" class="d" d="m448.7 192.7c-0.9 0-1.7-0.8-1.7-1.7 0-0.9 0.7-1.6 1.7-1.6 0.9 0 1.6 0.7 1.6 1.6 0 0.9-0.7 1.7-1.6 1.7zm0-2.3c-0.4 0-0.7 0.3-0.7 0.6 0 0.4 0.3 0.7 0.7 0.7 0.3 0 0.6-0.3 0.6-0.7 0-0.3-0.3-0.6-0.6-0.6z"/><path fill-rule="evenodd" class="d" d="m453.5 192.7c-0.9 0-1.7-0.8-1.7-1.7 0-0.9 0.8-1.6 1.7-1.6 0.9 0 1.6 0.7 1.6 1.6 0 0.9-0.7 1.7-1.6 1.7zm0-2.3c-0.4 0-0.7 0.3-0.7 0.6 0 0.4 0.3 0.7 0.7 0.7 0.3 0 0.6-0.3 0.6-0.7 0-0.3-0.2-0.6-0.6-0.6z"/><path fill-rule="evenodd" class="d" d="m457.9 192.7c-0.9 0-1.6-0.8-1.6-1.7 0-0.9 0.7-1.6 1.6-1.6 1 0 1.7 0.7 1.7 1.6 0 0.9-0.7 1.7-1.7 1.7zm0-2.3c-0.3 0-0.6 0.3-0.6 0.6 0 0.4 0.3 0.7 0.6 0.7 0.4 0 0.7-0.3 0.7-0.7 0-0.3-0.3-0.6-0.7-0.6z"/><path class="d" d="m454.2 202.5h-25.1c-0.2 0-0.5-0.3-0.5-0.5 0-0.3 0.3-0.5 0.5-0.5h25.1c0.3 0 0.5 0.2 0.5 0.5 0 0.2-0.2 0.5-0.5 0.5z"/><path class="d" d="m454.2 209.1h-25.1c-0.2 0-0.5-0.2-0.5-0.5 0-0.3 0.3-0.5 0.5-0.5h25.1c0.3 0 0.5 0.2 0.5 0.5 0 0.3-0.2 0.5-0.5 0.5z"/><path class="d" d="m454.2 215.7h-25.1c-0.2 0-0.5-0.2-0.5-0.5 0-0.3 0.3-0.5 0.5-0.5h25.1c0.3 0 0.5 0.2 0.5 0.5 0 0.3-0.2 0.5-0.5 0.5z"/><path class="d" d="m454.2 255.2c0 1.6-1.3 2.9-2.9 2.9h-22.5c-1.6 0-2.9-1.3-2.9-2.9v-22.5c0-1.6 1.3-2.9 2.9-2.9h22.5c1.6 0 2.9 1.3 2.9 2.9z"/><path class="d" d="m416.9 250.6h-24.1c-0.3 0-0.5-0.2-0.5-0.5 0-0.3 0.2-0.5 0.5-0.5h24.1c0.3 0 0.5 0.2 0.5 0.5 0 0.3-0.2 0.5-0.5 0.5z"/><path class="d" d="m416.9 244h-24.1c-0.3 0-0.5-0.2-0.5-0.5 0-0.3 0.2-0.5 0.5-0.5h24.1c0.3 0 0.5 0.2 0.5 0.5 0 0.3-0.2 0.5-0.5 0.5z"/><path class="d" d="m416.9 237.4h-24.1c-0.3 0-0.5-0.2-0.5-0.5 0-0.3 0.2-0.5 0.5-0.5h24.1c0.3 0 0.5 0.2 0.5 0.5 0 0.3-0.2 0.5-0.5 0.5z"/><path class="d" d="m448.3 268.7h-27.2c-0.3 0-0.5-0.3-0.5-0.5 0-0.3 0.2-0.5 0.5-0.5h27.2c0.2 0 0.5 0.2 0.5 0.5 0 0.3-0.3 0.5-0.5 0.5z"/><path class="d" d="m415.7 268.7h-20.7c-0.3 0-0.5-0.3-0.5-0.5 0-0.3 0.2-0.5 0.5-0.5h20.7c0.2 0 0.5 0.2 0.5 0.5 0 0.3-0.3 0.5-0.5 0.5z"/><path class="d" d="m436.6 276.2h-41.6c-0.3 0-0.5-0.2-0.5-0.5 0-0.3 0.2-0.5 0.5-0.5h41.6c0.3 0 0.5 0.2 0.5 0.5 0 0.3-0.2 0.5-0.5 0.5z"/><path class="b" d="m409.4 200l-1 6.2 6.3 0.9c0.5-3.4-1.9-6.6-5.3-7.1z"/><path fill-rule="evenodd" class="c" d="m415.1 207.7l-7.2-1.1 1.1-7.2 0.5 0.1c3.7 0.5 6.2 4 5.7 7.7zm-6.1-1.9zm5.2 0.7c0.2-2.7-1.7-5.3-4.4-5.9l-0.8 5.1z"/><path class="f" d="m407.3 198.4c-5.4-0.8-10.4 2.9-11.3 8.3-0.8 5.4 2.9 10.4 8.3 11.2 5.3 0.8 10.4-2.9 11.2-8.2l-9.8-1.5z"/><path fill-rule="evenodd" class="c" d="m405.8 218.5q-0.8 0-1.6-0.1c-2.7-0.4-5.1-1.9-6.8-4.1-1.6-2.2-2.3-5-1.9-7.7 0.5-2.7 1.9-5.1 4.1-6.8 2.3-1.6 5-2.3 7.7-1.8h0.5l-1.5 9.8 9.8 1.5-0.1 0.4c-0.8 5.2-5.2 8.8-10.2 8.8zm-0.1-19.7c-1.9 0-3.9 0.7-5.5 1.8-2 1.5-3.3 3.7-3.7 6.2-0.4 2.4 0.2 4.9 1.7 6.9 1.5 2 3.7 3.3 6.1 3.7 5 0.8 9.6-2.5 10.6-7.3l-9.8-1.5 1.6-9.7q-0.5-0.1-1-0.1z"/><path class="f" d="m445 252.7c-4.9 3-11.3 1.5-14.3-3.5-3-4.9-1.4-11.3 3.5-14.3 4.9-3 11.3-1.4 14.3 3.5 3 4.9 1.5 11.3-3.5 14.3z"/><path fill-rule="evenodd" class="c" d="m439.6 254.7c-2 0-3.9-0.5-5.6-1.5-5.2-3.1-6.9-9.8-3.8-15 1.5-2.5 3.9-4.3 6.7-5 2.8-0.7 5.8-0.3 8.3 1.2 2.5 1.5 4.3 3.8 5 6.7 0.7 2.8 0.3 5.7-1.2 8.2-1.5 2.5-3.9 4.3-6.7 5q-1.4 0.4-2.7 0.4zm0-20.9q-1.2 0-2.5 0.3c-2.5 0.7-4.7 2.3-6 4.6-2.8 4.7-1.3 10.8 3.4 13.6 2.3 1.3 5 1.7 7.6 1.1 2.5-0.7 4.7-2.3 6-4.6 1.4-2.3 1.8-4.9 1.1-7.5-0.6-2.6-2.3-4.7-4.5-6.1-1.6-0.9-3.3-1.4-5.1-1.4z"/><path class="d" d="m432.4 243.8c0 4 3.2 7.2 7.2 7.2 4 0 7.2-3.2 7.2-7.2 0-4-3.2-7.3-7.2-7.3-4 0-7.2 3.3-7.2 7.3z"/><path fill-rule="evenodd" class="c" d="m439.6 251.5c-4.3 0-7.7-3.5-7.7-7.7 0-4.3 3.5-7.7 7.7-7.7 4.3 0 7.7 3.4 7.7 7.7 0 4.2-3.4 7.7-7.7 7.7zm0-14.5c-3.7 0-6.7 3.1-6.7 6.8 0 3.7 3 6.7 6.7 6.7 3.7 0 6.7-3 6.7-6.7 0-3.7-3-6.8-6.7-6.8z"/><path class="f" d="m435.2 241.2c-1.4 2.4-0.6 5.5 1.8 7 2.4 1.4 5.6 0.6 7-1.8 1.5-2.4 0.7-5.6-1.8-7-2.4-1.5-5.6-0.7-7 1.8z"/><path fill-rule="evenodd" class="c" d="m439.6 249.4c-1 0-2-0.3-2.9-0.8-2.6-1.6-3.5-5-1.9-7.7 1.5-2.7 5-3.6 7.7-2 2.6 1.6 3.5 5.1 1.9 7.7-0.7 1.3-1.9 2.3-3.4 2.6q-0.7 0.2-1.4 0.2zm-4-8c-1.3 2.2-0.6 5 1.6 6.3 1.1 0.7 2.4 0.9 3.6 0.6 1.2-0.4 2.2-1.1 2.8-2.2 1.3-2.2 0.6-5-1.6-6.3-2.2-1.3-5.1-0.6-6.4 1.6z"/><path class="d" d="m437.1 243.8c0-1.4 1.1-2.6 2.5-2.6 1.4 0 2.5 1.2 2.5 2.6 0 1.4-1.1 2.5-2.5 2.5-1.4 0-2.5-1.1-2.5-2.5z"/><path fill-rule="evenodd" class="c" d="m439.6 246.8c-1.7 0-3-1.4-3-3 0-1.7 1.3-3.1 3-3.1 1.7 0 3 1.4 3 3.1 0 1.6-1.3 3-3 3zm0-5.1c-1.1 0-2 0.9-2 2.1 0 1.1 0.9 2 2 2 1.1 0 2-0.9 2-2 0-1.2-0.9-2.1-2-2.1z"/><path class="c" d="m439.5 244q0.1 0 0.2 0c0.1-0.1 0.1-0.3 0-0.4l-6.9-8c-0.1-0.1-0.2-0.1-0.3 0-0.1 0.1-0.2 0.3-0.1 0.4l6.9 7.9q0.1 0.1 0.2 0.1z"/><path fill-rule="evenodd" class="c" d="m439.5 244.3q-0.2 0-0.4-0.2l-6.8-8q-0.2-0.1-0.2-0.3 0-0.2 0.2-0.4 0.1-0.1 0.4-0.1 0.2 0 0.3 0.2l6.9 7.9q0.1 0.2 0.1 0.4 0 0.2-0.2 0.4-0.1 0.1-0.3 0.1zm0-0.5l-6.8-8c-0.1 0 6.8 8 6.8 8z"/><path class="c" d="m433.1 236.4c0 0 0.1-0.1 0.1-0.1l-0.5-2.5c0-0.1-0.2-0.2-0.3-0.2-0.1 0.1-0.2 0.2-0.2 0.3l0.3 1.6c0 0.1 0 0.1-0.1 0.1l-1.7-0.6c-0.1-0.1-0.2 0-0.3 0.1 0 0.1 0 0.3 0.2 0.4l2.5 0.9z"/><path fill-rule="evenodd" class="c" d="m433.1 236.6c0 0-0.1 0-0.1 0l-2.5-0.9q-0.2-0.1-0.3-0.3-0.1-0.2 0-0.4 0.1-0.2 0.3-0.2 0.1-0.1 0.3-0.1l1.4 0.5-0.2-1.2q-0.1-0.2 0-0.4 0.2-0.2 0.4-0.2 0.2-0.1 0.3 0 0.2 0.2 0.3 0.4l0.5 2.4q0 0.2-0.1 0.3-0.1 0.1-0.3 0.1zm-1.8-1.2l-0.6-0.2c0 0 0.3 0.1 0.6 0.2zm1.6 0.6l-0.4-2.1 0.3 1.5q0 0.2-0.1 0.4-0.2 0.1-0.4 0c0 0-0.5-0.2-1-0.4zm-0.6-0.5z"/><path class="c" d="m433.8 237.2c0.1 0.1 0.1 0 0.1-0.1l-0.5-2.4c0-0.2-0.1-0.3-0.3-0.2-0.1 0-0.2 0.1-0.2 0.3l0.3 1.5c0.1 0.1 0 0.2-0.1 0.1l-1.6-0.6c-0.2 0-0.3 0-0.4 0.2 0 0.1 0.1 0.3 0.2 0.3l2.5 0.9z"/><path fill-rule="evenodd" class="c" d="m433.9 237.5c0 0-0.1 0-0.1 0l-2.6-1q-0.2 0-0.2-0.2-0.1-0.2-0.1-0.4 0.1-0.2 0.3-0.3 0.2-0.1 0.4 0l1.4 0.5-0.3-1.3q0-0.2 0.1-0.4 0.1-0.1 0.3-0.2 0.2 0 0.4 0.1 0.2 0.1 0.2 0.3l0.5 2.5q0 0.2-0.1 0.3-0.1 0.1-0.2 0.1zm-1.9-1.2l-0.6-0.3c0 0 0.3 0.1 0.6 0.3zm1.6 0.6l-0.4-2.2 0.3 1.6q0 0.2-0.1 0.3-0.2 0.1-0.3 0c0 0-0.6-0.2-1.1-0.3zm0.1 0.3zm-0.7-0.8zm0.2-0.2z"/><path class="f" d="m347.1 269.7c0-1.9 1.5-3.4 3.4-3.4h19.8c1.9 0 3.4 1.5 3.4 3.4v31.1c0 1.9-1.5 3.4-3.4 3.4h-19.8c-1.9 0-3.4-1.5-3.4-3.4z"/><path fill-rule="evenodd" class="c" d="m370.3 304.7h-19.8c-2.2 0-3.9-1.8-3.9-3.9v-31.1c0-2.2 1.7-3.9 3.9-3.9h19.8c2.2 0 3.9 1.8 3.9 3.9v31.1c0 2.1-1.7 3.9-3.9 3.9zm-19.8-37.9c-1.6 0-2.9 1.3-2.9 2.9v31.1c0 1.6 1.3 2.9 2.9 2.9h19.8c1.6 0 2.9-1.3 2.9-2.9v-31.1c0-1.6-1.3-2.9-2.9-2.9z"/><path class="b" d="m300.8 269.8c-0.1-2.3 1.8-4.1 4-4.1h32.6c2.2 0 4.1 1.8 4.1 4.1v32.5c0 2.3-1.9 4.1-4.1 4.1h-32.6c-2.2 0-4.1-1.8-4.1-4.1z"/><path fill-rule="evenodd" class="c" d="m337.4 306.9h-32.6c-2.5 0-4.5-2-4.5-4.6v-32.5c0-2.6 2-4.6 4.5-4.6h32.6c2.5 0 4.6 2 4.6 4.6v32.5c0 2.6-2.1 4.6-4.6 4.6zm-32.6-40.7c-1.9 0-3.5 1.6-3.5 3.6v32.6c0 1.9 1.6 3.5 3.5 3.5h32.6c2 0 3.6-1.6 3.6-3.5v-32.6c0-2-1.6-3.6-3.6-3.6z"/><path class="d" d="m311.2 280.4c0-1.1 0.9-2 2-2h16.5c1.2 0 2.1 0.9 2.1 2v11.3c0 1.1-0.9 2-2.1 2h-16.5c-1.1 0-2-0.9-2-2z"/><path fill-rule="evenodd" class="c" d="m329.7 294.2h-16.5c-1.4 0-2.5-1.1-2.5-2.5v-11.3c0-1.4 1.1-2.5 2.5-2.5h16.5c1.4 0 2.6 1.1 2.6 2.6v11.2c0 1.4-1.2 2.5-2.6 2.5zm-16.5-15.3c-0.8 0-1.5 0.7-1.5 1.5v11.2c0 0.9 0.7 1.6 1.5 1.6h16.5c0.9 0 1.6-0.7 1.6-1.6v-11.2c0-0.8-0.7-1.5-1.6-1.5z"/><path class="d" d="m311.2 280.4l8.3 5.1c1.4 0.8 3.1 0.8 4.5-0.1l7.8-5"/><path class="c" d="m321.7 286.6c-0.9 0-1.7-0.2-2.5-0.7l-8.3-5 0.5-0.9 8.3 5c1.3 0.8 2.8 0.8 4 0l7.8-5 0.6 0.9-7.8 4.9c-0.8 0.5-1.7 0.8-2.6 0.8z"/><path class="j" d="m373.4 257c0 0.9-0.7 1.6-1.6 1.6h-53.5c-0.9 0-1.6-0.7-1.6-1.6v-27.4c0-0.9 0.7-1.6 1.6-1.6h53.5c0.9 0 1.6 0.7 1.6 1.6z"/><path class="a" d="m373.4 257.7c0 0.9-0.7 1.6-1.6 1.6h-53.5c-0.9 0-1.6-0.7-1.6-1.6v-27.4c0-0.9 0.7-1.6 1.6-1.6h53.5c0.9 0 1.6 0.7 1.6 1.6z"/><path fill-rule="evenodd" class="c" d="m371.8 259.8h-53.5c-1.2 0-2.1-0.9-2.1-2.1v-27.4c0-1.1 0.9-2.1 2.1-2.1h53.5c1.1 0 2.1 1 2.1 2.1v27.4c0 1.2-1 2.1-2.1 2.1zm-53.5-30.6c-0.6 0-1.1 0.5-1.1 1.1v27.4c0 0.6 0.5 1.1 1.1 1.1h53.5c0.6 0 1.1-0.5 1.1-1.1v-27.4c0-0.6-0.5-1.1-1.1-1.1z"/><path class="d" d="m344.5 239h-18c-0.2 0-0.5-0.3-0.5-0.5 0-0.3 0.3-0.5 0.5-0.5h18c0.3 0 0.5 0.2 0.5 0.5 0 0.3-0.3 0.5-0.5 0.5z"/><path class="d" d="m365.1 239h-16c-0.3 0-0.5-0.3-0.5-0.5 0-0.3 0.3-0.5 0.5-0.5h16c0.3 0 0.5 0.2 0.5 0.5 0 0.3-0.2 0.5-0.5 0.5z"/><path class="d" d="m342.5 248.6h-16c-0.2 0-0.5-0.2-0.5-0.5 0-0.3 0.3-0.5 0.5-0.5h16c0.3 0 0.5 0.3 0.5 0.5 0 0.3-0.2 0.5-0.5 0.5z"/><path class="d" d="m357.6 243.5h-15.9c-0.3 0-0.5-0.2-0.5-0.5 0-0.3 0.2-0.5 0.5-0.5h15.9c0.3 0 0.5 0.3 0.5 0.5 0 0.3-0.2 0.5-0.5 0.5z"/><path class="k" d="m337 243.5h-10.5c-0.2 0-0.5-0.2-0.5-0.5 0-0.3 0.3-0.5 0.5-0.5h10.5c0.3 0 0.5 0.3 0.5 0.5 0 0.3-0.2 0.5-0.5 0.5z"/><path class="k" d="m353.9 248.6h-6.5c-0.2 0-0.5-0.2-0.5-0.5 0-0.3 0.3-0.5 0.5-0.5h6.5c0.3 0 0.5 0.3 0.5 0.5 0 0.3-0.2 0.5-0.5 0.5z"/><path class="b" d="m373.4 220.2c0 0.8-0.7 1.5-1.6 1.5h-53.5c-0.9 0-1.6-0.7-1.6-1.5v-34.8c0-0.9 0.7-1.6 1.6-1.6h53.5c0.9 0 1.6 0.7 1.6 1.6z"/><path fill-rule="evenodd" class="c" d="m371.8 222.2h-53.5c-1.2 0-2.1-0.9-2.1-2v-34.8c0-1.2 0.9-2.1 2.1-2.1h53.5c1.1 0 2.1 0.9 2.1 2.1v34.8c0 1.1-1 2-2.1 2zm-53.5-37.9c-0.6 0-1.1 0.5-1.1 1.1v34.8c0 0.6 0.5 1 1.1 1h53.5c0.6 0 1.1-0.4 1.1-1v-34.8c0-0.6-0.5-1.1-1.1-1.1z"/><path fill-rule="evenodd" class="d" d="m358.4 188.5c-0.8 0-1.5-0.6-1.5-1.4 0-0.9 0.7-1.5 1.5-1.5 0.8 0 1.4 0.6 1.4 1.5 0 0.8-0.6 1.4-1.4 1.4zm0-1.9c-0.3 0-0.5 0.2-0.5 0.5 0 0.2 0.2 0.4 0.5 0.4 0.2 0 0.4-0.2 0.4-0.4 0-0.3-0.2-0.5-0.4-0.5z"/><path fill-rule="evenodd" class="d" d="m364.1 188.5c-0.8 0-1.5-0.6-1.5-1.4 0-0.9 0.7-1.5 1.5-1.5 0.8 0 1.5 0.6 1.5 1.5 0 0.8-0.7 1.4-1.5 1.4zm0-1.9c-0.2 0-0.5 0.2-0.5 0.5 0 0.2 0.3 0.4 0.5 0.4 0.3 0 0.5-0.2 0.5-0.4 0-0.3-0.2-0.5-0.5-0.5z"/><path fill-rule="evenodd" class="d" d="m369.9 188.5c-0.8 0-1.5-0.6-1.5-1.4 0-0.9 0.7-1.5 1.5-1.5 0.8 0 1.5 0.6 1.5 1.5 0 0.8-0.7 1.4-1.5 1.4zm0-1.9c-0.2 0-0.5 0.2-0.5 0.5 0 0.2 0.3 0.4 0.5 0.4 0.3 0 0.5-0.2 0.5-0.4 0-0.3-0.2-0.5-0.5-0.5z"/><path class="a" d="m345.1 216.5c-7.2 0-13.1-5.9-13.1-13.1 0-7.3 5.9-13.1 13.1-13.1 7.3 0 13.1 5.8 13.1 13.1 0 7.2-5.8 13.1-13.1 13.1z"/><path fill-rule="evenodd" class="c" d="m345.1 217c-7.5 0-13.6-6.1-13.6-13.6 0-7.5 6.1-13.6 13.6-13.6 7.5 0 13.6 6.1 13.6 13.6 0 7.5-6.1 13.6-13.6 13.6zm0-26.2c-6.9 0-12.6 5.6-12.6 12.6 0 6.9 5.7 12.6 12.6 12.6 7 0 12.6-5.7 12.6-12.6 0-7-5.6-12.6-12.6-12.6z"/><path class="d" d="m345.1 213.7c-5.7 0-10.3-4.6-10.3-10.3 0-5.7 4.6-10.3 10.3-10.3 5.7 0 10.3 4.6 10.3 10.3 0 5.7-4.6 10.3-10.3 10.3z"/><path fill-rule="evenodd" class="c" d="m345.1 214.2c-5.9 0-10.8-4.9-10.8-10.8 0-6 4.9-10.8 10.8-10.8 6 0 10.8 4.8 10.8 10.8 0 5.9-4.8 10.8-10.8 10.8zm0-20.6c-5.4 0-9.8 4.4-9.8 9.8 0 5.4 4.4 9.8 9.8 9.8 5.4 0 9.8-4.4 9.8-9.8 0-5.4-4.4-9.8-9.8-9.8z"/><path class="c" d="m349.6 204.1h-5.2v-5.9c0-0.4 0.3-0.7 0.7-0.7 0.4 0 0.7 0.3 0.7 0.7v4.5h3.8c0.4 0 0.7 0.3 0.7 0.7 0 0.4-0.3 0.7-0.7 0.7z"/><path class="a" d="m346.7 203.5c0 0.9-0.7 1.6-1.5 1.6-0.9 0-1.6-0.7-1.6-1.6 0-0.9 0.7-1.6 1.6-1.6 0.8 0 1.5 0.7 1.5 1.6z"/><path fill-rule="evenodd" class="c" d="m345.2 205.6c-1.2 0-2.1-1-2.1-2.1 0-1.1 0.9-2.1 2.1-2.1 1.1 0 2 1 2 2.1 0 1.1-0.9 2.1-2 2.1zm0-3.2c-0.6 0-1.1 0.5-1.1 1.1 0 0.6 0.5 1.1 1.1 1.1 0.6 0 1-0.5 1-1.1 0-0.6-0.4-1.1-1-1.1z"/><path class="f" d="m225.7 188.9c0-3.7 3-6.7 6.7-6.7h70.9c3.7 0 6.7 3 6.7 6.7v61.6c0 3.6-3 6.6-6.7 6.6h-70.9c-3.7 0-6.7-3-6.7-6.6z"/><path fill-rule="evenodd" class="c" d="m303.3 257.6h-70.9c-4 0-7.2-3.2-7.2-7.2v-61.6c0-3.9 3.2-7.1 7.2-7.1h70.9c3.9 0 7.2 3.2 7.2 7.1v61.6c0 4-3.3 7.2-7.2 7.2zm-70.9-74.9c-3.5 0-6.2 2.8-6.2 6.2v61.6c0 3.4 2.7 6.1 6.2 6.1h70.9c3.4 0 6.2-2.7 6.2-6.1v-61.6c0-3.5-2.8-6.2-6.2-6.2z"/><path class="d" d="m276.8 211.7c-5 5-13 5-18 0-4.9-4.9-4.9-12.9 0-17.9 5-4.9 13-4.9 18 0 4.9 5 4.9 13 0 17.9z"/><path fill-rule="evenodd" class="c" d="m267.8 216c-7.3 0-13.2-5.9-13.2-13.2 0-7.3 5.9-13.2 13.2-13.2 7.3 0 13.2 5.9 13.2 13.2 0 7.3-5.9 13.2-13.2 13.2zm0-25.4c-6.7 0-12.2 5.5-12.2 12.2 0 6.7 5.5 12.2 12.2 12.2 6.7 0 12.2-5.5 12.2-12.2 0-6.7-5.5-12.2-12.2-12.2z"/><path class="a" d="m273.4 208.6c0-3.2-2.5-5.8-5.7-5.8-3.2 0-5.8 2.6-5.8 5.8 0 0 11.5 0 11.5 0z"/><path fill-rule="evenodd" class="c" d="m268.3 209.1c-1.5 0-3.1 0-4.3 0q-2.6 0-2.6-0.5c0-3.5 2.8-6.3 6.3-6.3 3.4 0 6.2 2.8 6.2 6.3q0 0.5-5.6 0.5zm-5.9-1c1.9 0 8.7 0 10.5 0-0.2-2.7-2.5-4.8-5.2-4.8-2.7 0-5 2.1-5.3 4.8z"/><path class="a" d="m264.4 198.8c0 1.8 1.5 3.2 3.3 3.2 1.8 0 3.3-1.4 3.3-3.2 0-1.9-1.5-3.3-3.3-3.3-1.8 0-3.3 1.4-3.3 3.3z"/><path fill-rule="evenodd" class="c" d="m267.7 202.5c-2.1 0-3.8-1.7-3.8-3.8 0-2 1.7-3.7 3.8-3.7 2.1 0 3.8 1.7 3.8 3.8 0 2-1.7 3.7-3.8 3.7zm0-6.5c-1.5 0-2.8 1.2-2.8 2.8 0 1.5 1.3 2.7 2.8 2.7 1.5 0 2.8-1.2 2.8-2.7 0-1.6-1.3-2.8-2.8-2.8z"/><path class="d" d="m288 230.6h-40.4c-2.4 0-4.4-2-4.4-4.4 0-2.5 2-4.5 4.4-4.5h40.4c2.4 0 4.4 2 4.4 4.5 0 2.4-2 4.4-4.4 4.4z"/><path fill-rule="evenodd" class="c" d="m288 231.1h-40.4c-2.7 0-4.9-2.2-4.9-4.9 0-2.7 2.2-5 4.9-5h40.4c2.7 0 4.9 2.3 4.9 5 0 2.7-2.2 4.9-4.9 4.9zm-40.4-8.9c-2.1 0-3.9 1.8-3.9 4 0 2.1 1.8 3.9 3.9 3.9h40.4c2.2 0 3.9-1.8 3.9-3.9 0-2.2-1.7-4-3.9-4z"/><path class="d" d="m243.2 240.6c0-2.4 2-4.4 4.4-4.4h40.4c2.5 0 4.5 2 4.5 4.4 0 2.5-2 4.5-4.5 4.5h-40.4c-2.4 0-4.4-2-4.4-4.5z"/><path fill-rule="evenodd" class="c" d="m288 245.6h-40.4c-2.7 0-4.9-2.3-4.9-5 0-2.7 2.2-4.9 4.9-4.9h40.4c2.7 0 4.9 2.2 4.9 4.9 0 2.8-2.2 5-4.9 5zm-40.4-8.9c-2.1 0-3.9 1.8-3.9 3.9 0 2.2 1.8 4 3.9 4h40.4c2.2 0 3.9-1.8 3.9-4 0-2.1-1.7-3.9-3.9-3.9z"/><path class="d" d="m260.8 248.8c-0.1-0.4 0.3-0.7 0.7-0.7h12.6c0.4 0 0.8 0.3 0.8 0.7v0.1c0 0.4-0.4 0.8-0.8 0.8h-12.6c-0.4 0-0.8-0.4-0.8-0.8z"/><path class="d" d="m298.6 193q-0.2 0-0.4-0.1c-0.2-0.2-0.2-0.5 0-0.7l4.9-4.9c0.2-0.2 0.5-0.2 0.7 0 0.2 0.2 0.2 0.5 0 0.7l-4.9 4.9q-0.1 0.1-0.3 0.1z"/><path class="d" d="m303.4 193q-0.2 0-0.3-0.1l-4.9-4.9c-0.2-0.2-0.2-0.5 0-0.7 0.2-0.2 0.5-0.2 0.7 0l4.9 4.9c0.2 0.2 0.2 0.5 0 0.7q-0.2 0.1-0.4 0.1z"/><path class="g" d="m225.7 269.8c0-2.2 1.8-4.1 4.1-4.1h61.6c2.2 0 4 1.9 4 4.1v32.6c0 2.2-1.8 4.1-4 4.1h-61.6c-2.3 0-4.1-1.9-4.1-4.1z"/><path class="c" d="m287.4 300.3h-10.9v-30.5h10.9z"/><path fill-rule="evenodd" class="c" d="m287.4 300.8h-10.9c-0.2 0-0.5-0.2-0.5-0.5v-30.5c0-0.2 0.3-0.5 0.5-0.5h10.9c0.3 0 0.5 0.3 0.5 0.5v30.5c0 0.3-0.2 0.5-0.5 0.5zm-10.4-1h9.9v-29.5h-9.9z"/><path class="c" d="m272 300.3h-10.8v-17.2h10.8z"/><path fill-rule="evenodd" class="c" d="m272 300.8h-10.8c-0.3 0-0.5-0.2-0.5-0.5v-17.2c0-0.3 0.2-0.5 0.5-0.5h10.8c0.3 0 0.5 0.2 0.5 0.5v17.2c0 0.3-0.2 0.5-0.5 0.5zm-10.3-1h9.8v-16.2h-9.8z"/><path class="f" d="m275.7 269.8h10.9v29.4h-10.9z"/><path fill-rule="evenodd" class="c" d="m287.1 299.8l-11.9-0.1v-30.4h11.9zm-10.9-1h9.9v-28.4h-9.9z"/><path class="a" d="m271.2 299.3h-10.8v-16.2h10.8z"/><path fill-rule="evenodd" class="c" d="m271.2 299.8l-10.8-0.1c-0.3 0-0.5-0.2-0.5-0.5v-16.1c0-0.3 0.2-0.5 0.5-0.5h10.8c0.3 0 0.5 0.2 0.5 0.5v16.1c0 0.3-0.2 0.5-0.5 0.5zm-10.3-1h9.8v-15.1h-9.8z"/><path class="c" d="m256.5 300.4h-10.8v-9.4h10.8z"/><path fill-rule="evenodd" class="c" d="m256.6 300.9h-10.9c-0.3 0-0.5-0.2-0.5-0.5v-9.4c0-0.3 0.2-0.5 0.5-0.5h10.8c0.3 0 0.5 0.2 0.5 0.5v9.4c0 0.3-0.2 0.5-0.5 0.5zm-10.3-1h9.8v-8.4h-9.8z"/><path class="f" d="m255.7 299.8h-10.8v-8.8h10.8z"/><path fill-rule="evenodd" class="c" d="m256.3 300.3h-11.9v-9.8h11.8zm-10.8-1h9.8v-7.8h-9.8z"/><path class="c" d="m241.8 300.4h-10.9v-4.4h10.9z"/><path fill-rule="evenodd" class="c" d="m241.8 300.9h-10.9c-0.2 0-0.5-0.2-0.5-0.5v-4.4c0-0.3 0.3-0.5 0.5-0.5h10.9c0.3 0 0.5 0.2 0.5 0.5v4.4c0 0.3-0.2 0.5-0.5 0.5zm-10.4-1h9.9v-3.4h-9.9z"/><path class="a" d="m241 300.1h-10.9v-4.1h10.9z"/><path fill-rule="evenodd" class="c" d="m241 300.6h-10.8c-0.3 0-0.5-0.2-0.5-0.5v-4.1c0-0.3 0.2-0.5 0.5-0.5h10.8c0.3 0 0.5 0.2 0.5 0.5v4.1c0 0.3-0.2 0.5-0.5 0.5zm-10.3-1h9.8v-3.1h-9.8z"/><path class="c" d="m232.7 290.1c2.2-0.7 4.2-1.7 6.2-2.7q3-1.5 5.7-3.5c1.9-1.2 3.5-2.7 5.1-4.2 1.6-1.5 3-3.2 4.2-5h0.1c0.5-0.8 1.6-0.9 2.3-0.4 0.8 0.6 1 1.6 0.4 2.4q0 0-0.1 0.1c-1.6 1.8-3.2 3.5-5.1 4.9-1.8 1.5-3.8 2.8-5.8 3.9q-3 1.7-6.2 3c-2.2 0.9-4.3 1.6-6.6 2.2-0.2 0-0.4-0.1-0.4-0.3 0-0.1 0.1-0.3 0.2-0.4z"/><path class="c" d="m256.7 279.8l-2.1-3.1-3.7-0.7 7.3-5-1.5 8.8z"/><path class="l" d="m383.4 326.3h-40.7c8.1 0 11.8-5.9 11.8-13.2v-17.2c0-6.8 6.1-12.3 13.7-12.3h1.5c7.6 0 13.7 5.5 13.7 12.3z"/><path fill-rule="evenodd" class="c" d="m383.4 326.8h-40.7c-0.3 0-0.5-0.2-0.5-0.5 0-0.3 0.2-0.5 0.5-0.5 7.1 0 11.3-4.7 11.3-12.7v-17.2c0-7.1 6.4-12.8 14.2-12.8h1.5c7.8 0 14.2 5.7 14.2 12.8v30.4c0 0.3-0.2 0.5-0.5 0.5zm-35.5-1h35v-29.9c0-6.5-5.9-11.8-13.2-11.8h-1.5c-7.3 0-13.2 5.3-13.2 11.8v17.2c0 6.3-2.6 10.8-7.1 12.7z"/><path class="m" d="m367.8 283.6c0.5-0.1-0.4-0.1 0-0.1l32.4 0.2h60.3c11 0 19.8 7.6 19.7 16.9v79.5h-83.6c-8.1 0-14.7-5.5-14.6-12.4l0.4-57.7v-9.4c0-17-14.6-17.1-14.6-17.1z"/><path fill-rule="evenodd" class="c" d="m396.6 380.6c-4.5 0-8.7-1.6-11.6-4.5-2.3-2.4-3.6-5.3-3.5-8.4l0.4-67.2c0-16.2-13.4-16.5-14.1-16.5-0.5 0-0.6-0.3-0.6-0.5 0-0.1 0.1-0.5 0.6-0.5q0.1 0 0.2 0l32.3 0.2c0 0 0 0 0 0h60.2c6 0 11.6 2.2 15.5 6.1 3.1 3.2 4.8 7.1 4.7 11.2v79.6c0 0.3-0.2 0.5-0.5 0.5zm-23.8-96.5q0 0 0 0 0 0 0 0zm10.2 16.4l-0.5 67.2c0 2.8 1.1 5.5 3.2 7.7 2.7 2.7 6.7 4.2 10.9 4.2h83.1v-79.1c0.1-3.8-1.5-7.5-4.4-10.4-3.7-3.8-9.1-5.9-14.8-5.9h-60.2c0 0-0.1 0-0.1 0 0 0-27.3-0.1-27.4-0.1 4.4 1.6 10.2 5.8 10.2 16.4z"/><path class="b" d="m404.9 315.2c-3.7 0-6.7-3-6.7-6.6 0-3.7 3-6.7 6.7-6.7 3.6 0 6.6 3 6.6 6.7 0 3.6-3 6.6-6.6 6.6z"/><path fill-rule="evenodd" class="c" d="m404.9 315.7c-4 0-7.2-3.2-7.2-7.1 0-4 3.2-7.2 7.2-7.2 3.9 0 7.1 3.2 7.1 7.2 0 3.9-3.2 7.1-7.1 7.1zm0-13.3c-3.4 0-6.2 2.8-6.2 6.2 0 3.3 2.8 6.1 6.2 6.1 3.3 0 6.1-2.8 6.1-6.1 0-3.4-2.8-6.2-6.1-6.2z"/><path class="c" d="m461.2 304.3h-41.2c-0.2 0-0.5-0.3-0.5-0.5 0-0.3 0.3-0.5 0.5-0.5h41.2c0.3 0 0.5 0.2 0.5 0.5 0 0.2-0.2 0.5-0.5 0.5z"/><path class="c" d="m436.6 309.6h-16.6c-0.2 0-0.5-0.2-0.5-0.5 0-0.3 0.3-0.5 0.5-0.5h16.6c0.3 0 0.5 0.2 0.5 0.5 0 0.3-0.2 0.5-0.5 0.5z"/><path class="c" d="m461.2 309.6h-16.6c-0.3 0-0.5-0.2-0.5-0.5 0-0.3 0.2-0.5 0.5-0.5h16.6c0.2 0 0.5 0.2 0.5 0.5 0 0.3-0.3 0.5-0.5 0.5z"/><path class="c" d="m436.9 317.1h-16.5c-0.3 0-0.5-0.2-0.5-0.5 0-0.3 0.2-0.5 0.5-0.5h16.5c0.3 0 0.5 0.2 0.5 0.5 0 0.3-0.2 0.5-0.5 0.5z"/><path class="a" d="m404.9 337.8c-3.6 0-6.5-2.9-6.5-6.4 0-3.6 2.9-6.4 6.5-6.4 3.5 0 6.4 2.8 6.4 6.4 0 3.5-2.9 6.4-6.4 6.4z"/><path fill-rule="evenodd" class="c" d="m404.9 338.3c-3.9 0-7-3.1-7-6.9 0-3.8 3.1-6.9 7-6.9 3.8 0 6.9 3.1 6.9 6.9 0 3.8-3.1 6.9-6.9 6.9zm0-12.9c-3.3 0-6 2.7-6 6 0 3.2 2.7 5.9 6 5.9 3.2 0 5.9-2.7 5.9-5.9 0-3.3-2.7-6-5.9-6z"/><path class="c" d="m461.2 327.1h-41.2c-0.2 0-0.5-0.2-0.5-0.5 0-0.3 0.3-0.5 0.5-0.5h41.2c0.3 0 0.5 0.2 0.5 0.5 0 0.3-0.2 0.5-0.5 0.5z"/><path class="l" d="m446.6 380.1h-49c9.5 0 15.1-6.5 15.1-14.5v-18.9c0-7.4 7.2-13.5 16.1-13.5h1.7c8.9 0 16.1 6.1 16.1 13.5z"/><path fill-rule="evenodd" class="c" d="m446.6 380.6h-49c-0.3 0-0.5-0.3-0.5-0.5 0-0.3 0.2-0.5 0.5-0.5 8.6 0 14.6-5.8 14.6-14v-18.9c0-7.7 7.5-14 16.6-14h1.7c9.2 0 16.6 6.3 16.6 14v33.4c0 0.2-0.2 0.5-0.5 0.5zm-42.9-1h42.4v-32.9c0-7.1-7-13-15.6-13h-1.7c-8.6 0-15.6 5.9-15.6 13v18.9c0 6.7-3.7 11.9-9.5 14z"/><path class="m" d="m503.4 333.2h-73.2c8.8 0 15.9 5.9 15.9 13v54c0 4.6 4.7 8.4 10.3 8.4h69.9v-56.7c0-10.3-10.3-18.6-22.9-18.6z"/><path fill-rule="evenodd" class="c" d="m526.3 409.1h-69.9c-5.9 0-10.8-4-10.8-8.9v-54c0-6.9-6.9-12.5-15.4-12.5-0.3 0-0.5-0.2-0.5-0.5 0-0.3 0.2-0.5 0.5-0.5h73.2c12.9 0 23.4 8.6 23.4 19.2v56.7c0 0.2-0.2 0.5-0.5 0.5zm-89.9-75.4q0 0 0 0zm10.2 12.5v54c0 4.3 4.4 7.9 9.8 7.9h69.4v-56.2c0-10-10-18.2-22.4-18.2h-67c6 2 10.2 6.9 10.2 12.5z"/><path class="f" d="m468.6 366.6c-3.4 0-6.2-2.8-6.2-6.2 0-3.4 2.8-6.2 6.2-6.2 3.5 0 6.3 2.8 6.3 6.2 0 3.4-2.8 6.2-6.3 6.2z"/><path fill-rule="evenodd" class="c" d="m468.6 367.1c-3.7 0-6.7-3-6.7-6.7 0-3.7 3-6.7 6.7-6.7 3.8 0 6.8 3 6.8 6.7 0 3.7-3 6.7-6.8 6.7zm0-12.4c-3.1 0-5.7 2.5-5.7 5.7 0 3.2 2.6 5.7 5.7 5.7 3.2 0 5.8-2.5 5.8-5.7 0-3.2-2.6-5.7-5.8-5.7z"/><path class="c" d="m513.8 355.8h-32.1c-0.3 0-0.5-0.2-0.5-0.5 0-0.3 0.2-0.5 0.5-0.5h32.1c0.3 0 0.5 0.2 0.5 0.5 0 0.3-0.2 0.5-0.5 0.5z"/><path class="c" d="m497.6 362.5h-15.9c-0.3 0-0.5-0.3-0.5-0.5 0-0.3 0.2-0.5 0.5-0.5h15.9c0.3 0 0.5 0.2 0.5 0.5 0 0.2-0.2 0.5-0.5 0.5z"/><path class="c" d="m513.8 368h-32.1c-0.3 0-0.5-0.2-0.5-0.5 0-0.3 0.2-0.5 0.5-0.5h32.1c0.3 0 0.5 0.2 0.5 0.5 0 0.3-0.2 0.5-0.5 0.5z"/><path class="l" d="m546.9 378.3h-82.3l0.1 20.6c0 4.7-2.9 8.6-8.4 9.5-0.2 0-0.7 0 0 0 1 0 1.8 0 1.8 0l53.6 0.1q0.3 0 0.7 0h22.7c6.6-0.1 11.9-4.3 11.8-9.5 0 0 0-20.7 0-20.7z"/><path fill-rule="evenodd" class="c" d="m535.1 409h-22.7q-0.3 0-0.7 0l-53.6-0.1c0 0-0.8 0-1.8 0-0.4 0-0.9 0-0.9-0.5 0-0.2 0.1-0.5 0.6-0.5q0.2 0 0.2 0c5-0.8 8-4.2 8-8.9v-20.7q0-0.2 0.1-0.3 0.2-0.2 0.4-0.2h82.2c0.3 0 0.5 0.2 0.5 0.5v20.7c0.1 2.2-0.9 4.4-2.6 6.2-2.4 2.4-5.9 3.8-9.7 3.8zm-22.7-1h22.7c3.5 0 6.8-1.3 9-3.5 1.5-1.6 2.4-3.5 2.3-5.5v-20.2h-81.2v20.2c0 4-2.1 7.3-5.6 8.9l52.1 0.1q0.3 0 0.7 0z"/><path class="g" d="m341 275.7q1.3 6.2 1.3 12.8c0 35.2-28.6 63.7-63.8 63.7-14.3 0-27.5-4.7-38.1-12.6 0.9 1.1 0.9 2.7-0.1 3.7l-8.7 8.6c-1 1.1-2.8 1.1-3.9 0l-1.6-1.6-9.2 9.3c1.5 1.7 2.3 3 2.1 3.2l-43.1 42.6c-4.3 4.3-11.4 4.3-15.8 0q-0.8-0.8-1.5-1.8c-0.2 3.1 0.9 6.2 3.3 8.5 4.4 4.4 11.4 4.4 15.8 0l43-42.5c0.3-0.3-0.5-1.5-2-3.2l9.2-9.4 1.6 1.7c1.1 1.1 2.8 1.1 3.9 0l8.6-8.6c1.1-1.1 1.1-2.7 0.2-3.7 10.6 7.9 23.8 12.6 38.1 12.6 35.2 0 63.8-28.6 63.8-63.8 0-6.8-1.1-13.4-3.1-19.5z"/><path class="n" d="m278.4 332.8c-23.6 0-42.6-19-42.6-42.6 0-23.5 19-42.6 42.6-42.6 23.6 0 42.6 19.1 42.6 42.6 0 23.6-19 42.6-42.6 42.6z"/><g style="opacity:.6"><path class="d" d="m278.4 337.9c-26.4 0-47.7-21.3-47.7-47.7 0-26.4 21.3-47.7 47.7-47.7 26.4 0 47.7 21.3 47.7 47.7 0 26.4-21.3 47.7-47.7 47.7z"/><path fill-rule="evenodd" class="c" d="m278.4 338.4c-26.6 0.1-48.2-21.6-48.2-48.2 0-26.5 21.6-48.2 48.2-48.2 26.6 0 48.2 21.7 48.2 48.2 0 26.6-21.6 48.3-48.2 48.3zm0-95.5c-26 0-47.2 21.2-47.2 47.2 0 26.1 21.2 47.2 47.2 47.2 26 0 47.2-21.1 47.2-47.2 0-26-21.2-47.2-47.2-47.2z"/></g><path class="c" d="m278.4 331.7c-22.8 0-41.4-18.6-41.4-41.5 0-3.5 0.4-7.1 1.3-10.5 0.1-0.2 0.3-0.4 0.6-0.3 0.3 0 0.5 0.3 0.4 0.6-0.9 3.3-1.3 6.8-1.3 10.2 0 22.3 18.1 40.5 40.4 40.5 22.3 0 40.4-18.2 40.4-40.5 0-22.3-18.1-40.4-40.4-40.4-0.3 0-0.5-0.2-0.5-0.5 0-0.3 0.2-0.5 0.5-0.5 22.9 0 41.4 18.6 41.4 41.4 0 22.9-18.5 41.5-41.4 41.5z"/><path class="c" d="m241.1 273.8q-0.1 0-0.2 0c-0.2-0.2-0.4-0.5-0.2-0.7 1.3-3 3.1-5.9 5.1-8.5 2.6-3.2 5.6-6.1 9-8.4q2.1-1.5 4.5-2.7c0.2-0.2 0.5-0.1 0.6 0.2 0.2 0.2 0.1 0.5-0.2 0.6q-2.2 1.2-4.4 2.7c-3.3 2.3-6.2 5.1-8.7 8.2-2 2.6-3.7 5.4-5 8.3-0.1 0.2-0.3 0.3-0.5 0.3z"/><path class="b" d="m240.3 341.4q-0.1-0.1-0.2-0.2l-12.9-12.9-0.1-0.1c-1-1.1-2.8-1.1-3.8 0l-8.7 8.6c-1 1.1-1 2.9 0 3.9l0.7 0.7 10.7 10.7 1.6 1.6c1.1 1.1 2.8 1.1 3.9 0l8.6-8.6c1.1-1 1.1-2.6 0.2-3.7z"/><path fill-rule="evenodd" class="c" d="m229.6 355c-0.9 0-1.7-0.3-2.3-0.9l-13-13c-0.6-0.6-1-1.5-1-2.3 0-0.9 0.4-1.7 1-2.3l8.6-8.7c1.3-1.2 3.3-1.2 4.6 0l13 13q0.1 0.1 0.1 0.2l-0.3 0.4 0.4-0.3c1.1 1.3 1 3.1-0.2 4.3l-8.6 8.7c-0.6 0.6-1.5 0.9-2.3 0.9zm-4.4-27.1c-0.6 0-1.1 0.2-1.6 0.7l-8.6 8.6c-0.9 0.9-0.9 2.3 0 3.2l13 13c0.9 0.9 2.3 0.9 3.2 0l8.6-8.7c0.8-0.8 0.9-2.1 0.1-3v-0.1l-13.1-13c-0.4-0.5-1-0.7-1.6-0.7z"/><path class="i" d="m206.1 350.8c0 0 0 0 0 0 3 2.5 7.4 6.9 10.2 10q0.3 0.3 0.5 0.6l9.2-9.3-10.7-10.7z"/><path fill-rule="evenodd" class="c" d="m216.8 361.9q-0.2 0-0.4-0.2-0.2-0.3-0.5-0.5c-2.8-3.2-7.2-7.6-10.1-10-0.1-0.1-0.2-0.3-0.2-0.4 0-0.1 0-0.3 0.1-0.4l9.2-9.4q0.1-0.2 0.3-0.2 0.3 0.1 0.4 0.2l10.7 10.7c0.2 0.2 0.2 0.5 0 0.7l-9.2 9.3q-0.1 0.2-0.3 0.2zm-10-11.2c3 2.6 7.1 6.6 9.9 9.8q0 0.1 0.1 0.1l8.4-8.6-10-9.9z"/><path class="b" d="m206.1 350.8c0 0 0 0-0.1 0-1.6-1.4-2.7-2.1-3-1.8l-43 42.5c-4.4 4.3-4.4 11.3 0 15.7 4.3 4.3 11.4 4.3 15.8 0l43-42.6c0.3-0.2-0.6-1.5-2-3.2q-0.2-0.3-0.5-0.6c-2.8-3.2-7.2-7.5-10.2-10z"/><path fill-rule="evenodd" class="c" d="m167.9 410.9c-3 0-6-1.1-8.3-3.4-2.2-2.1-3.4-5-3.4-8.1 0-3.1 1.2-6 3.4-8.2l43-42.6c0.5-0.4 1.3-0.3 3.8 1.8 3 2.5 7.4 6.8 10.3 10.1q0.3 0.3 0.5 0.6c2.3 2.7 2.5 3.4 2 3.9l-43 42.5c-2.3 2.3-5.3 3.4-8.3 3.4zm35.3-61.5l-42.9 42.5c-2 2-3.1 4.6-3.1 7.5 0 2.8 1.1 5.4 3.1 7.4 4.2 4.2 11 4.2 15.2 0l42.9-42.4c-0.1-0.2-0.5-0.9-2-2.7q-0.2-0.2-0.5-0.5c-2.8-3.2-7.2-7.6-10.1-10l0.3-0.4-0.4 0.4c-1.6-1.4-2.3-1.7-2.5-1.8z"/><path fill-rule="evenodd" class="c" d="m278.4 338.4c-26.6 0.1-48.2-21.6-48.2-48.2 0-26.5 21.6-48.2 48.2-48.2 26.6 0 48.2 21.7 48.2 48.2 0 26.6-21.6 48.3-48.2 48.3zm0-95.5c-26 0-47.2 21.2-47.2 47.2 0 26.1 21.2 47.2 47.2 47.2 26 0 47.2-21.1 47.2-47.2 0-26-21.2-47.2-47.2-47.2z"/><path fill-rule="evenodd" class="a" d="m278.4 226.5c35.2 0 63.8 28.5 63.8 63.7 0 35.3-28.6 63.8-63.8 63.8-14.3 0-27.5-4.7-38.1-12.6q-0.1-0.1-0.1-0.2l-13-12.9c-7.9-10.6-12.6-23.8-12.6-38.1 0-35.2 28.6-63.8 63.8-63.8zm0 111.5c26.3 0 47.7-21.3 47.7-47.7 0-26.3-21.4-47.7-47.7-47.7-6.1 0-11.9 1.1-17.2 3.2q-2.5 1-4.8 2.2-2.7 1.4-5.2 3.1c-3.9 2.7-7.4 6-10.3 9.7-2.4 3-4.4 6.3-6 9.8q-0.9 2.1-1.7 4.4-0.5 1.6-1 3.2c-1 3.9-1.5 7.9-1.5 12.1 0 26.4 21.3 47.7 47.7 47.7z"/><path fill-rule="evenodd" class="c" d="m278.4 354.5c-14 0-27.2-4.4-38.4-12.7q-0.1-0.1-0.1-0.1c0 0-0.1-0.1-0.1-0.1l-12.9-13c-8.4-11.2-12.8-24.5-12.8-38.4 0-35.4 28.8-64.3 64.3-64.3 35.5 0 64.3 28.9 64.3 64.3 0 35.5-28.8 64.3-64.3 64.3zm0-127.6c-34.9 0-63.3 28.4-63.3 63.3 0 13.7 4.3 26.8 12.5 37.8l12.9 12.8q0.1 0.1 0.1 0.2c11 8.2 24.1 12.5 37.8 12.5 34.9 0 63.3-28.4 63.3-63.3 0-34.9-28.4-63.3-63.3-63.3zm0 111.6c-26.6 0-48.2-21.7-48.2-48.3 0-4.1 0.5-8.2 1.6-12.2q0.4-1.6 0.9-3.2 0.8-2.3 1.8-4.5c1.6-3.5 3.6-6.8 6-9.9 3-3.7 6.5-7 10.4-9.8q2.6-1.7 5.3-3.1 2.4-1.3 4.9-2.3c5.5-2.1 11.4-3.2 17.3-3.2 26.6 0 48.2 21.7 48.2 48.2 0 26.6-21.6 48.3-48.2 48.3zm0-95.5c-5.9 0-11.6 1.1-17 3.2q-2.4 0.9-4.8 2.1-2.6 1.4-5.1 3.1c-3.9 2.7-7.3 6-10.2 9.7-2.3 2.9-4.3 6.2-5.9 9.6q-1 2.2-1.7 4.4-0.5 1.6-1 3.2c-1 3.9-1.5 7.9-1.5 12 0 26 21.2 47.2 47.2 47.2 26 0 47.2-21.2 47.2-47.2 0-26.1-21.2-47.3-47.2-47.3z"/><path class="d" d="m333.9 277.1c-0.7 0-1.3-0.5-1.5-1.2-5.9-27.8-27.1-34.8-27.3-34.9-0.8-0.3-1.2-1.1-1-1.9 0.3-0.8 1.1-1.2 1.9-1 0.9 0.3 23.1 7.6 29.3 37.1 0.2 0.9-0.3 1.7-1.1 1.8q-0.2 0.1-0.3 0.1z"/><path class="d" d="m231.8 349q-0.2 0-0.4-0.1c-0.2-0.2-0.2-0.5 0-0.7l3.8-4.2c1-1 0.9-2.7-0.1-3.7l-4.1-3.8c-0.2-0.2-0.2-0.5 0-0.7 0.2-0.2 0.5-0.2 0.7 0l4.1 3.7c1.4 1.4 1.5 3.7 0.1 5.2l-3.8 4.1q-0.1 0.2-0.3 0.2z"/><path class="o" d="m312.4 288.9c-1.7 0-3-1.4-3-3 0-13-10.6-23.6-23.6-23.6-1.6 0-3-1.3-3-3 0-1.7 1.4-3 3-3 16.3 0 29.6 13.3 29.6 29.6 0 1.6-1.3 3-3 3z"/><path class="d" d="m168.5 406.9c-1 0-1.9-0.2-2.6-0.5-3.6-1.3-6.1-4.8-6-5.5 0-0.3 0.2-0.5 0.5-0.5 0.2 0 0.4 0.2 0.5 0.4 0.1 0.5 2.6 4.3 6.5 5 3.2 0.5 6.3-1.2 9.3-5.2 0.2-0.2 0.5-0.3 0.7-0.1 0.3 0.2 0.3 0.5 0.1 0.7-3.3 4.4-6.5 5.7-9 5.7z"/><path fill-rule="evenodd" class="c" d="m155.9 238.4c1 0.7 1.3 2 0.6 3-0.6 1-1.9 1.3-2.9 0.7l-2-1.3c-1.2 1.3-2.7 2.3-4.2 2.9l0.5 2.3c0.2 1.2-0.5 2.3-1.7 2.6-1.1 0.2-2.3-0.5-2.5-1.7l-0.5-2.2c-1.7 0-3.4-0.3-5.1-0.9l-1.2 1.9c-0.7 1-2 1.3-3 0.7-1-0.7-1.3-2-0.6-3l1.2-1.9c-1.3-1.2-2.3-2.7-2.9-4.2l-2.3 0.5c-1.2 0.2-2.3-0.5-2.6-1.7-0.2-1.1 0.5-2.3 1.7-2.5l2.2-0.5c0-1.7 0.3-3.5 0.9-5.1l-1.9-1.2c-1-0.7-1.3-2-0.7-3 0.7-1 2-1.3 3-0.7l2 1.3c1.1-1.3 2.6-2.3 4.2-2.9l-0.5-2.3c-0.3-1.2 0.4-2.3 1.6-2.6 1.1-0.2 2.3 0.5 2.5 1.6l0.5 2.3c1.7 0 3.5 0.3 5.1 0.9l1.3-1.9c0.6-1 1.9-1.3 2.9-0.7 1 0.7 1.3 2 0.7 3l-1.3 1.9c1.3 1.2 2.3 2.7 2.9 4.2l2.3-0.5c1.2-0.2 2.3 0.5 2.6 1.7 0.2 1.1-0.5 2.3-1.6 2.5l-2.3 0.5c0 1.7-0.3 3.5-0.9 5.1l1.9 1.2zm-5.7-1.1c2.6-4.1 1.4-9.5-2.7-12.1-4.1-2.6-9.5-1.4-12.1 2.7-2.6 4.1-1.4 9.5 2.7 12.1 4.1 2.6 9.5 1.4 12.1-2.7z"/><path fill-rule="evenodd" class="c" d="m145.8 249.1c-1.2 0-2.3-0.9-2.6-2.1l-0.4-1.9q-2.3 0-4.5-0.8l-1 1.7c-0.4 0.6-1 1-1.7 1.1-0.7 0.2-1.3 0-1.9-0.3-0.6-0.4-1-1-1.2-1.7-0.1-0.7 0-1.3 0.4-1.9l1-1.7q-1.6-1.6-2.6-3.7l-1.9 0.4c-0.7 0.1-1.4 0-1.9-0.4-0.6-0.3-1-0.9-1.2-1.6-0.1-0.7 0-1.4 0.4-1.9 0.3-0.6 0.9-1 1.6-1.2l1.9-0.4q0-2.3 0.8-4.5l-1.6-1.1c-1.3-0.7-1.6-2.4-0.8-3.6 0.7-1.2 2.3-1.5 3.5-0.7l1.7 1q1.6-1.7 3.8-2.6l-0.5-1.9c-0.1-0.7 0-1.4 0.4-2 0.4-0.6 0.9-1 1.6-1.1 1.4-0.3 2.8 0.6 3.1 2l0.4 1.9q2.4 0 4.5 0.8l1.1-1.7c0.4-0.6 1-1 1.6-1.1 0.7-0.2 1.4 0 2 0.3 1.2 0.8 1.5 2.4 0.8 3.6l-1.1 1.7q1.7 1.6 2.6 3.7l1.9-0.4c1.5-0.3 2.8 0.6 3.1 2 0.4 1.4-0.5 2.8-1.9 3.1l-1.9 0.4q0 2.3-0.8 4.5l1.6 1.1c1.2 0.7 1.6 2.4 0.8 3.6-0.4 0.5-0.9 0.9-1.6 1.1-0.7 0.1-1.4 0-2-0.4l-1.6-1q-1.7 1.7-3.8 2.6l0.4 1.9c0.3 1.4-0.6 2.8-1.9 3.1q-0.3 0.1-0.6 0.1zm-2.6-4.9c0.2 0 0.4 0.2 0.4 0.4l0.5 2.2c0.2 0.9 1.1 1.5 2.1 1.3 0.4-0.1 0.8-0.3 1-0.7 0.3-0.4 0.3-0.8 0.2-1.3l-0.5-2.3c0-0.2 0.1-0.4 0.3-0.5q2.3-1 4.1-2.8c0.1-0.2 0.4-0.2 0.5-0.1l2 1.3c0.4 0.2 0.8 0.3 1.3 0.2 0.4-0.1 0.8-0.4 1-0.7 0.5-0.8 0.3-1.9-0.5-2.4l-1.9-1.2c-0.2-0.2-0.3-0.4-0.2-0.6q0.9-2.3 0.8-4.8c0-0.3 0.2-0.5 0.4-0.5l2.3-0.5c0.9-0.2 1.5-1.1 1.3-2-0.2-0.9-1.1-1.5-2.1-1.3l-2.2 0.5c-0.2 0-0.5-0.1-0.5-0.3q-1-2.3-2.9-4c-0.1-0.2-0.2-0.4 0-0.6l1.2-2c0.5-0.8 0.3-1.8-0.5-2.3-0.4-0.3-0.8-0.3-1.3-0.3-0.4 0.1-0.8 0.4-1 0.8l-1.3 2c-0.1 0.1-0.4 0.2-0.6 0.1q-2.3-0.9-4.8-0.8c-0.3 0-0.4-0.2-0.5-0.4l-0.5-2.3c-0.2-0.9-1.1-1.5-2-1.3-0.4 0.1-0.8 0.4-1.1 0.8-0.2 0.4-0.3 0.8-0.2 1.3l0.5 2.2c0.1 0.3-0.1 0.5-0.3 0.6q-2.3 0.9-4 2.8c-0.2 0.1-0.4 0.2-0.6 0.1l-2-1.3c-0.7-0.5-1.8-0.3-2.3 0.5-0.5 0.8-0.3 1.9 0.5 2.4l2 1.2c0.2 0.1 0.3 0.4 0.2 0.6q-1 2.3-0.9 4.8c0 0.3-0.1 0.4-0.3 0.5l-2.3 0.5c-0.5 0.1-0.8 0.4-1.1 0.7-0.2 0.4-0.3 0.9-0.2 1.3 0.1 0.5 0.3 0.8 0.7 1.1 0.4 0.2 0.9 0.3 1.3 0.2l2.3-0.5c0.2 0 0.4 0.1 0.5 0.3q1 2.3 2.8 4c0.2 0.2 0.2 0.4 0.1 0.6l-1.3 2c-0.2 0.3-0.3 0.8-0.2 1.2 0.1 0.5 0.4 0.9 0.7 1.1 0.4 0.2 0.9 0.3 1.3 0.2 0.5-0.1 0.8-0.3 1.1-0.7l1.2-2c0.2-0.2 0.4-0.2 0.6-0.1q2.3 0.9 4.9 0.8 0 0 0 0zm-0.5-2.4c-1.7 0-3.4-0.5-4.9-1.5-2.1-1.3-3.5-3.3-4.1-5.7-0.5-2.4 0-4.9 1.3-6.9 1.3-2.1 3.3-3.5 5.7-4.1 2.4-0.5 4.9-0.1 7 1.3 2 1.3 3.5 3.3 4 5.7 0.5 2.4 0.1 4.9-1.2 6.9-1.4 2.1-3.4 3.5-5.8 4.1q-1 0.2-2 0.2zm0-17.5q-0.9 0-1.8 0.2c-2.1 0.5-4 1.8-5.2 3.6-2.4 3.9-1.3 9 2.6 11.5 3.8 2.4 8.9 1.3 11.4-2.5 1.2-1.9 1.6-4.1 1.1-6.3-0.5-2.1-1.8-4-3.6-5.2-1.4-0.8-2.9-1.3-4.5-1.3z"/><path fill-rule="evenodd" class="c" d="m202.5 250.6c-1.8 1.2-4.2 0.7-5.3-1.1l-2.3-3.6c-3 1.2-6.1 1.8-9.1 1.6l-0.9 4.2c-0.5 2.1-2.6 3.4-4.7 2.9-2-0.4-3.4-2.5-2.9-4.6l0.9-4.1c-2.9-1.2-5.5-3-7.6-5.3l-3.6 2.3c-1.8 1.1-4.2 0.6-5.3-1.2-1.2-1.8-0.7-4.2 1.1-5.3l3.6-2.3c-1.2-3-1.8-6.1-1.6-9.1l-4.2-0.9c-2.1-0.5-3.4-2.6-2.9-4.6 0.4-2.1 2.5-3.5 4.6-3l4.1 0.9c1.2-2.8 3-5.4 5.3-7.6l-2.3-3.6c-1.1-1.8-0.6-4.2 1.2-5.3 1.8-1.2 4.2-0.7 5.3 1.1l2.3 3.6c3-1.2 6.1-1.7 9.1-1.6l0.9-4.2c0.5-2.1 2.6-3.4 4.6-2.9 2.1 0.4 3.5 2.5 3 4.6l-0.9 4.1c2.9 1.2 5.5 3 7.6 5.3l3.6-2.3c1.8-1.1 4.2-0.6 5.3 1.2 1.2 1.8 0.7 4.2-1.1 5.3l-3.6 2.3c1.2 3 1.8 6.1 1.6 9.1l4.2 0.9c2.1 0.5 3.4 2.6 2.9 4.7-0.4 2-2.5 3.4-4.6 2.9l-4.1-0.9c-1.2 2.9-3 5.5-5.3 7.6l2.3 3.6c1.1 1.8 0.6 4.2-1.2 5.3zm-7.4-11.6c7.3-4.7 9.5-14.4 4.7-21.8-4.7-7.3-14.4-9.4-21.8-4.7-7.3 4.7-9.4 14.4-4.7 21.8 4.7 7.3 14.4 9.5 21.8 4.7z"/><path fill-rule="evenodd" class="c" d="m181.1 255.2q-0.5 0-0.9-0.1c-2.4-0.5-3.8-2.8-3.3-5.2l0.8-3.7c-2.7-1.2-5.1-2.9-7.2-5l-3.2 2.1c-2 1.3-4.7 0.7-6-1.3-1.3-2-0.7-4.7 1.3-6l3.3-2.1q-1.7-4.1-1.6-8.6l-3.7-0.8c-2.4-0.5-3.9-2.8-3.3-5.1 0.2-1.2 0.9-2.1 1.8-2.7 1-0.7 2.2-0.9 3.3-0.6l3.8 0.8c1.1-2.7 2.8-5.1 4.9-7.2l-2-3.2c-1.3-2-0.7-4.7 1.3-6 2-1.3 4.6-0.7 5.9 1.3l2.1 3.3q4.1-1.7 8.6-1.6l0.8-3.7c0.5-2.4 2.8-3.8 5.2-3.3 2.3 0.5 3.8 2.8 3.3 5.1l-0.9 3.8c2.8 1.2 5.2 2.8 7.2 5l3.2-2.1c2.1-1.3 4.7-0.7 6 1.3 1.3 2 0.7 4.7-1.3 5.9l-3.2 2.1q1.6 4.2 1.5 8.6l3.8 0.8c2.3 0.5 3.8 2.8 3.3 5.2-0.5 2.3-2.8 3.8-5.2 3.3l-3.7-0.8c-1.2 2.7-2.9 5.1-5 7.1l2.1 3.3c1.3 2 0.7 4.6-1.3 5.9-2 1.3-4.7 0.7-6-1.3l-2.1-3.2q-4.1 1.6-8.6 1.5l-0.8 3.8c-0.4 2-2.2 3.4-4.2 3.4zm-10.5-15q0.2 0 0.3 0.1c2.1 2.2 4.6 4 7.5 5.2 0.2 0.1 0.3 0.3 0.3 0.5l-0.9 4.1c-0.4 1.9 0.7 3.7 2.6 4.1 1.8 0.4 3.6-0.8 4-2.6l0.9-4.2c0.1-0.2 0.3-0.3 0.5-0.3 3.1 0.1 6.1-0.4 8.9-1.6 0.2-0.1 0.5 0 0.6 0.2l2.3 3.5c1 1.6 3.1 2.1 4.7 1.1 1.6-1.1 2-3.2 1-4.8l-2.3-3.5c-0.1-0.2 0-0.5 0.1-0.6 2.3-2.1 4-4.6 5.2-7.5 0.1-0.2 0.3-0.3 0.5-0.2l4.1 0.9c1.9 0.4 3.7-0.8 4.1-2.6 0.4-1.9-0.8-3.7-2.6-4.1l-4.1-0.9c-0.2-0.1-0.4-0.3-0.4-0.5 0.1-3.1-0.4-6.1-1.6-8.9-0.1-0.2 0-0.5 0.2-0.6l3.5-2.3c1.6-1 2.1-3.1 1.1-4.7-1-1.6-3.2-2-4.8-1l-3.5 2.3c-0.2 0.1-0.4 0.1-0.6-0.1-2.1-2.3-4.6-4-7.4-5.2-0.2-0.1-0.3-0.3-0.3-0.5l0.9-4.1c0.4-1.9-0.8-3.7-2.6-4.1-0.9-0.2-1.8 0-2.6 0.5-0.8 0.5-1.3 1.2-1.5 2.1l-0.9 4.1c0 0.3-0.2 0.4-0.5 0.4-3-0.1-6 0.4-8.9 1.6-0.2 0.1-0.4 0-0.5-0.2l-2.3-3.5c-1-1.6-3.2-2.1-4.7-1.1-1.6 1.1-2.1 3.2-1.1 4.8l2.3 3.5c0.1 0.2 0.1 0.4-0.1 0.6-2.2 2.1-4 4.6-5.1 7.4-0.1 0.2-0.3 0.3-0.6 0.3l-4.1-0.9c-0.9-0.2-1.8 0-2.6 0.5-0.7 0.5-1.3 1.2-1.5 2.1-0.2 0.9 0 1.8 0.5 2.6 0.5 0.8 1.3 1.3 2.1 1.5l4.2 0.9c0.2 0.1 0.3 0.2 0.3 0.5-0.1 3 0.4 6.1 1.6 8.9 0.1 0.2 0 0.4-0.1 0.5l-3.6 2.3c-1.6 1-2.1 3.2-1 4.8 1 1.5 3.1 2 4.7 1l3.6-2.3q0.1-0.1 0.2-0.1zm16 1.9c-5.4 0-10.6-2.7-13.7-7.5-4.8-7.5-2.6-17.6 4.9-22.4 7.5-4.9 17.6-2.7 22.4 4.9 4.9 7.5 2.7 17.6-4.9 22.4-2.7 1.7-5.7 2.6-8.7 2.6zm-12.9-8c4.5 7.1 14 9.2 21.1 4.6 7.2-4.5 9.2-14 4.7-21.1-4.6-7.2-14.1-9.2-21.2-4.7-7.1 4.6-9.2 14.1-4.6 21.2z"/><path fill-rule="evenodd" class="a" d="m200.4 250c-1.8 1.2-4.2 0.6-5.3-1.2l-2.3-3.5c-3 1.2-6.1 1.7-9.1 1.6l-0.9 4.1c-0.5 2.1-2.6 3.5-4.6 3-2.1-0.5-3.5-2.5-3-4.6l0.9-4.1c-2.8-1.2-5.4-3-7.6-5.3l-3.6 2.2c-1.8 1.2-4.2 0.7-5.3-1.1-1.2-1.8-0.7-4.2 1.1-5.4l3.6-2.2c-1.2-3-1.7-6.1-1.6-9.2l-4.2-0.9c-2.1-0.4-3.4-2.5-2.9-4.6 0.4-2.1 2.5-3.4 4.6-2.9l4.1 0.9c1.2-2.9 3-5.5 5.3-7.7l-2.3-3.5c-1.1-1.8-0.6-4.2 1.2-5.4 1.8-1.1 4.2-0.6 5.3 1.2l2.3 3.6c3-1.3 6.1-1.8 9.1-1.7l0.9-4.1c0.5-2.1 2.6-3.4 4.7-3 2 0.5 3.4 2.6 2.9 4.6l-0.9 4.2c2.9 1.1 5.5 2.9 7.6 5.3l3.6-2.3c1.8-1.2 4.2-0.6 5.3 1.2 1.2 1.8 0.7 4.1-1.1 5.3l-3.6 2.3c1.2 2.9 1.8 6 1.6 9.1l4.2 0.9c2.1 0.5 3.4 2.5 2.9 4.6-0.4 2.1-2.5 3.4-4.6 3l-4.1-0.9c-1.2 2.8-3 5.4-5.3 7.6l2.3 3.6c1.1 1.7 0.6 4.1-1.2 5.3zm-7.4-11.6c7.3-4.7 9.5-14.5 4.7-21.8-4.7-7.3-14.4-9.5-21.8-4.8-7.3 4.8-9.4 14.5-4.7 21.9 4.7 7.3 14.5 9.4 21.8 4.7z"/><path fill-rule="evenodd" class="c" d="m179 254.5q-0.5 0-0.9-0.1c-1.2-0.2-2.1-0.9-2.8-1.8-0.6-1-0.8-2.2-0.5-3.3l0.8-3.8c-2.7-1.1-5.1-2.8-7.2-4.9l-3.2 2c-2 1.3-4.7 0.7-6-1.3-1.3-2-0.7-4.7 1.3-5.9l3.3-2.1c-1.1-2.8-1.6-5.6-1.6-8.6l-3.7-0.8c-2.4-0.5-3.9-2.8-3.3-5.2 0.5-2.3 2.8-3.8 5.1-3.3l3.8 0.9c1.1-2.8 2.8-5.2 4.9-7.2l-2-3.3c-1.3-2-0.7-4.6 1.3-5.9 0.9-0.6 2.1-0.9 3.2-0.6 1.1 0.2 2.1 0.9 2.7 1.9l2.1 3.2q4.2-1.6 8.6-1.5l0.8-3.8c0.5-2.3 2.8-3.8 5.2-3.3 2.3 0.5 3.8 2.8 3.3 5.2l-0.8 3.7c2.7 1.2 5.1 2.9 7.1 5l3.3-2.1c2-1.3 4.6-0.7 5.9 1.3 1.3 2 0.7 4.7-1.3 6l-3.2 2.1q1.6 4.1 1.5 8.6l3.8 0.8c1.1 0.2 2.1 0.9 2.7 1.9 0.6 0.9 0.8 2.1 0.6 3.2-0.5 2.4-2.8 3.8-5.2 3.3l-3.7-0.8c-1.2 2.7-2.9 5.1-5 7.2l2.1 3.2c0.6 1 0.8 2.1 0.6 3.3-0.3 1.1-1 2.1-1.9 2.7-1 0.6-2.2 0.8-3.3 0.6-1.1-0.3-2.1-0.9-2.7-1.9l-2.1-3.3q-4.1 1.7-8.6 1.6l-0.8 3.7c-0.4 2.1-2.2 3.4-4.2 3.4zm-10.5-15q0.2 0 0.3 0.2c2.1 2.2 4.6 4 7.5 5.1 0.2 0.1 0.3 0.3 0.2 0.5l-0.9 4.2c-0.2 0.9 0 1.8 0.5 2.6 0.5 0.7 1.3 1.3 2.2 1.5 0.8 0.1 1.8 0 2.5-0.5 0.8-0.5 1.3-1.3 1.5-2.2l0.9-4.1c0.1-0.2 0.3-0.4 0.5-0.3 3.1 0.1 6.1-0.5 8.9-1.6 0.2-0.1 0.5 0 0.6 0.1l2.3 3.6c0.4 0.8 1.2 1.3 2.1 1.5 0.9 0.2 1.8 0 2.6-0.5 0.8-0.5 1.3-1.2 1.5-2.1 0.2-0.9 0-1.8-0.5-2.6l-2.3-3.6c-0.1-0.1 0-0.4 0.1-0.5 2.3-2.1 4-4.6 5.2-7.5 0.1-0.2 0.3-0.3 0.5-0.3l4.1 0.9c1.9 0.4 3.7-0.7 4.1-2.6 0.2-0.9 0-1.8-0.4-2.5-0.5-0.8-1.3-1.3-2.2-1.5l-4.1-0.9c-0.2-0.1-0.4-0.3-0.4-0.5 0.1-3.1-0.4-6.1-1.6-8.9-0.1-0.2 0-0.5 0.2-0.6l3.6-2.3c1.5-1 2-3.1 1-4.7-1-1.6-3.2-2-4.7-1l-3.6 2.3c-0.2 0.1-0.4 0-0.6-0.1-2.1-2.3-4.6-4-7.4-5.2-0.2-0.1-0.3-0.3-0.3-0.5l0.9-4.1c0.4-1.9-0.8-3.7-2.6-4.1-0.9-0.2-1.8 0-2.6 0.4-0.8 0.5-1.3 1.3-1.5 2.2l-0.9 4.1c0 0.2-0.2 0.4-0.5 0.4-3-0.1-6 0.4-8.9 1.6-0.2 0.1-0.4 0-0.5-0.2l-2.3-3.6c-0.5-0.7-1.3-1.3-2.2-1.5-0.9-0.1-1.8 0-2.5 0.5-1.6 1-2.1 3.1-1.1 4.7l2.3 3.6c0.1 0.2 0.1 0.4-0.1 0.6-2.2 2.1-4 4.6-5.1 7.4-0.1 0.2-0.4 0.3-0.6 0.3l-4.1-0.9c-1.8-0.4-3.7 0.8-4.1 2.6-0.4 1.8 0.8 3.7 2.7 4.1l4.1 0.9c0.2 0 0.3 0.2 0.3 0.4-0.1 3.1 0.4 6.1 1.6 9 0.1 0.2 0 0.4-0.1 0.5l-3.6 2.3c-1.6 1-2.1 3.1-1 4.7 1 1.6 3.1 2.1 4.7 1.1l3.6-2.3q0.1-0.1 0.2-0.1zm16 1.8c-5.3 0-10.6-2.6-13.7-7.4-4.8-7.6-2.6-17.6 4.9-22.5 3.7-2.3 8-3.1 12.2-2.2 4.3 1 7.9 3.5 10.2 7.1 2.4 3.7 3.2 8 2.2 12.3-0.9 4.2-3.4 7.8-7.1 10.2-2.7 1.7-5.7 2.5-8.7 2.5zm-12.9-7.9c4.5 7.1 14 9.2 21.2 4.6 3.4-2.2 5.8-5.6 6.6-9.6 0.9-4 0.2-8.1-2-11.6-2.2-3.4-5.6-5.8-9.6-6.7-4-0.8-8.1-0.1-11.6 2.1-7.1 4.6-9.2 14.1-4.6 21.2z"/><path fill-rule="evenodd" class="b" d="m174.4 269.4c-0.6 1-1.9 1.3-2.9 0.7l-2-1.3c-1.2 1.3-2.7 2.3-4.2 3l0.5 2.3c0.2 1.1-0.5 2.3-1.7 2.5-1.1 0.3-2.3-0.4-2.5-1.6l-0.5-2.3c-1.8 0.1-3.5-0.2-5.1-0.9l-1.3 2c-0.6 1-2 1.3-3 0.6-1-0.6-1.3-1.9-0.6-2.9l1.2-2c-1.3-1.2-2.3-2.7-2.9-4.2l-2.3 0.5c-1.2 0.2-2.3-0.5-2.6-1.7-0.3-1.1 0.5-2.3 1.6-2.5l2.3-0.6c0-1.7 0.3-3.4 0.9-5l-1.9-1.3c-1.1-0.7-1.3-2-0.7-3 0.6-1 2-1.3 3-0.7l2 1.3c1.2-1.3 2.6-2.3 4.2-2.9l-0.5-2.3c-0.3-1.2 0.5-2.4 1.6-2.6 1.2-0.3 2.3 0.5 2.6 1.6l0.5 2.3c1.7 0 3.4 0.2 5.1 0.9l1.3-2c0.6-1 1.9-1.3 2.9-0.6 1 0.6 1.3 2 0.7 3l-1.3 1.9c1.3 1.2 2.3 2.7 3 4.3l2.3-0.5c1.1-0.3 2.3 0.4 2.5 1.6 0.3 1.2-0.4 2.3-1.6 2.6l-2.3 0.5c0.1 1.7-0.2 3.4-0.9 5.1l2 1.2c1 0.7 1.3 2 0.6 3zm-6.4-4.1c2.6-4.1 1.4-9.6-2.7-12.2-4.1-2.6-9.5-1.4-12.2 2.7-2.6 4.1-1.4 9.5 2.7 12.2 4.1 2.6 9.6 1.4 12.2-2.7z"/><path fill-rule="evenodd" class="c" d="m163.6 277.1q-0.7 0-1.4-0.4c-0.6-0.3-1-0.9-1.1-1.6l-0.4-2c-1.6 0.1-3.1-0.2-4.6-0.8l-1.1 1.7c-0.7 1.2-2.3 1.6-3.6 0.8-0.5-0.4-0.9-1-1.1-1.6-0.1-0.7 0-1.4 0.4-2l1-1.7q-1.6-1.6-2.6-3.8l-1.9 0.5c-1.4 0.3-2.9-0.6-3.2-2-0.3-1.4 0.6-2.8 2-3.1l2-0.5q-0.1-2.3 0.8-4.5l-1.7-1.1c-1.2-0.8-1.6-2.4-0.8-3.6 0.8-1.2 2.4-1.6 3.6-0.8l1.7 1.1q1.6-1.7 3.8-2.7l-0.5-1.9c-0.1-0.7 0-1.4 0.4-2 0.4-0.6 1-1 1.6-1.1 0.7-0.2 1.4 0 2 0.3 0.6 0.4 1 1 1.1 1.7l0.5 1.9q2.3 0 4.5 0.8l1.1-1.6c0.4-0.6 1-1 1.6-1.2 0.7-0.1 1.4 0 2 0.4 1.2 0.7 1.6 2.4 0.8 3.6l-1.1 1.6q1.7 1.7 2.7 3.8l1.9-0.4c0.7-0.1 1.4 0 2 0.4 0.6 0.3 1 0.9 1.1 1.6 0.2 0.7 0 1.4-0.3 2-0.4 0.6-1 1-1.7 1.1l-1.9 0.4q0 2.4-0.8 4.6l1.6 1.1c0.6 0.3 1 0.9 1.2 1.6 0.1 0.7 0 1.4-0.4 2-0.7 1.2-2.4 1.5-3.6 0.8l-1.6-1.1q-1.7 1.7-3.8 2.6l0.4 2c0.2 0.6 0 1.3-0.3 1.9-0.4 0.6-1 1-1.7 1.2q-0.3 0-0.6 0zm-2.2-4.9l0.6 2.7c0.1 0.4 0.3 0.8 0.7 1.1 0.4 0.2 0.9 0.3 1.3 0.2 0.5-0.1 0.8-0.4 1.1-0.8q0.4-0.5 0.2-1.2l-0.6-2.7 0.4-0.2q2.3-0.9 4.1-2.8l0.2-0.3 2.3 1.5c0.8 0.5 1.9 0.3 2.4-0.5 0.2-0.4 0.3-0.9 0.2-1.3-0.1-0.5-0.4-0.9-0.8-1.1l-2.3-1.5 0.2-0.3q1-2.4 0.9-4.9v-0.4l2.6-0.6c0.5-0.1 0.8-0.3 1.1-0.7q0.4-0.6 0.2-1.3c-0.1-0.5-0.4-0.9-0.7-1.1-0.4-0.2-0.9-0.3-1.3-0.2l-2.7 0.6-0.1-0.4q-1-2.3-2.9-4.1l-0.3-0.2 1.5-2.3c0.5-0.8 0.3-1.9-0.5-2.4q-0.6-0.4-1.3-0.2c-0.5 0.1-0.8 0.3-1.1 0.7l-1.4 2.3-0.4-0.1q-2.3-1-4.9-0.9h-0.4l-0.6-2.6c-0.1-0.5-0.3-0.9-0.7-1.1q-0.6-0.4-1.3-0.2c-0.5 0.1-0.8 0.3-1.1 0.7-0.2 0.4-0.3 0.9-0.2 1.3l0.6 2.7-0.4 0.1q-2.3 1-4 2.9l-0.3 0.3-2.3-1.5c-0.8-0.5-1.8-0.3-2.4 0.5-0.2 0.4-0.3 0.8-0.2 1.3 0.1 0.4 0.4 0.8 0.8 1.1l2.3 1.4-0.2 0.4q-0.9 2.3-0.8 4.9v0.4l-2.7 0.6c-0.9 0.2-1.5 1.1-1.3 2 0.2 0.9 1.1 1.5 2 1.3l2.7-0.6 0.1 0.4q1 2.3 2.9 4l0.3 0.3-1.5 2.3c-0.2 0.4-0.3 0.8-0.2 1.3 0.1 0.4 0.3 0.8 0.7 1.1 0.8 0.5 1.9 0.2 2.4-0.6l1.5-2.3 0.3 0.2q2.4 0.9 4.9 0.8h0.4zm-0.9-2.4c-1.7 0-3.4-0.5-4.9-1.4-2.1-1.4-3.5-3.4-4.1-5.8-0.5-2.5-0.1-4.9 1.3-7 1.3-2.1 3.4-3.5 5.8-4.1 2.4-0.5 4.9-0.1 6.9 1.3 4.3 2.7 5.6 8.4 2.9 12.7-1.4 2.1-3.4 3.6-5.8 4.1q-1 0.2-2.1 0.2zm0.1-17.6q-0.9 0-1.8 0.2c-2.2 0.5-4.1 1.8-5.3 3.7-1.2 1.9-1.6 4.1-1.1 6.3 0.5 2.1 1.8 4 3.7 5.2 1.8 1.2 4.1 1.6 6.3 1.1 2.1-0.5 4-1.7 5.2-3.6 2.5-3.9 1.3-9.1-2.5-11.6-1.4-0.8-2.9-1.3-4.5-1.3z"/><path fill-rule="evenodd" class="f" d="m157 240.1c-0.7 1-2 1.3-3 0.6l-1.9-1.2c-1.2 1.3-2.7 2.3-4.2 2.9l0.5 2.3c0.2 1.2-0.5 2.3-1.7 2.6-1.1 0.2-2.3-0.5-2.5-1.7l-0.5-2.3c-1.7 0.1-3.5-0.2-5.1-0.9l-1.2 2c-0.7 1-2 1.3-3 0.7-1-0.7-1.3-2-0.7-3l1.3-2c-1.3-1.2-2.3-2.6-2.9-4.2l-2.3 0.5c-1.2 0.3-2.3-0.4-2.6-1.6-0.2-1.2 0.5-2.3 1.7-2.6l2.2-0.5c0-1.7 0.3-3.4 0.9-5l-1.9-1.3c-1-0.6-1.3-1.9-0.7-2.9 0.7-1 2-1.3 3-0.7l1.9 1.3c1.2-1.3 2.7-2.3 4.2-3l-0.5-2.2c-0.2-1.2 0.5-2.3 1.7-2.6 1.1-0.3 2.3 0.5 2.5 1.6l0.5 2.3c1.7 0 3.5 0.2 5.1 0.9l1.2-2c0.7-1 2-1.2 3-0.6 1 0.6 1.3 2 0.7 3l-1.3 1.9c1.3 1.2 2.3 2.7 2.9 4.2l2.3-0.5c1.2-0.2 2.3 0.5 2.6 1.7 0.2 1.1-0.5 2.3-1.6 2.5l-2.3 0.5c0 1.7-0.3 3.4-0.9 5.1l1.9 1.2c1 0.7 1.3 2 0.7 3zm-6.4-4.1c2.6-4.1 1.4-9.5-2.7-12.1-4.1-2.6-9.5-1.4-12.1 2.7-2.6 4-1.4 9.4 2.7 12 4.1 2.6 9.5 1.5 12.1-2.6z"/><path fill-rule="evenodd" class="c" d="m146.3 247.8c-1.2 0-2.3-0.9-2.6-2.1l-0.4-1.9q-2.3 0-4.5-0.8l-1 1.7c-0.8 1.2-2.4 1.5-3.6 0.7-0.6-0.3-1-0.9-1.2-1.6-0.1-0.7 0-1.4 0.4-1.9l1-1.7q-1.6-1.6-2.6-3.7l-1.9 0.4c-1.4 0.3-2.8-0.6-3.1-2-0.3-1.4 0.6-2.8 2-3.1l1.9-0.4q0-2.3 0.8-4.5l-1.6-1.1c-1.3-0.8-1.6-2.4-0.8-3.6 0.3-0.6 0.9-1 1.6-1.1 0.7-0.2 1.4 0 1.9 0.3l1.7 1.1q1.6-1.7 3.8-2.6l-0.5-1.9c-0.3-1.4 0.6-2.8 2-3.1 1.4-0.3 2.8 0.6 3.1 2l0.4 1.9q2.4-0.1 4.5 0.8l1.1-1.7c0.4-0.6 0.9-1 1.6-1.1 0.7-0.2 1.4-0.1 2 0.3 0.6 0.4 1 1 1.1 1.7 0.2 0.6 0 1.3-0.3 1.9l-1.1 1.7q1.7 1.6 2.6 3.7l1.9-0.4c1.4-0.3 2.8 0.6 3.1 2 0.3 1.4-0.5 2.8-1.9 3.1l-2 0.4q0.1 2.3-0.8 4.5l1.7 1.1c1.2 0.7 1.6 2.3 0.8 3.5-0.4 0.6-1 1-1.6 1.2-0.7 0.1-1.4 0-2-0.4l-1.7-1q-1.6 1.6-3.7 2.6l0.4 1.9c0.3 1.4-0.6 2.8-2 3.1q-0.3 0.1-0.5 0.1zm-2.3-4.9l0.6 2.6c0.2 0.9 1.1 1.5 2 1.3 0.9-0.2 1.5-1.1 1.3-2l-0.6-2.7 0.4-0.1q2.3-1 4-2.8l0.3-0.3 2.3 1.5c0.4 0.2 0.8 0.3 1.3 0.2 0.4-0.1 0.8-0.4 1-0.8 0.3-0.3 0.3-0.8 0.2-1.2-0.1-0.5-0.3-0.9-0.7-1.1l-2.3-1.5 0.2-0.3q0.9-2.3 0.8-4.9v-0.3l2.7-0.6c0.9-0.2 1.4-1.1 1.2-2-0.2-1-1.1-1.5-2-1.3l-2.6 0.5-0.2-0.3q-0.9-2.3-2.8-4.1l-0.3-0.2 1.5-2.3c0.2-0.4 0.3-0.8 0.2-1.3-0.1-0.4-0.3-0.8-0.7-1-0.4-0.3-0.9-0.4-1.3-0.3-0.4 0.1-0.8 0.4-1.1 0.8l-1.4 2.3-0.4-0.2q-2.3-0.9-4.8-0.8h-0.4l-0.6-2.7c-0.2-0.9-1.1-1.5-2-1.3-0.9 0.2-1.5 1.1-1.3 2l0.6 2.7-0.4 0.1q-2.3 1-4 2.9l-0.3 0.2-2.3-1.4c-0.3-0.3-0.8-0.3-1.2-0.2-0.5 0.1-0.9 0.3-1.1 0.7-0.5 0.8-0.3 1.8 0.5 2.3l2.3 1.5-0.1 0.4q-1 2.3-0.9 4.8v0.4l-2.6 0.6c-0.9 0.2-1.5 1.1-1.3 2 0.2 0.9 1.1 1.5 2 1.3l2.6-0.6 0.2 0.4q1 2.3 2.8 4l0.3 0.3-1.5 2.2c-0.2 0.4-0.3 0.9-0.2 1.3 0.1 0.5 0.4 0.8 0.7 1.1 0.8 0.5 1.9 0.3 2.4-0.5l1.4-2.3 0.4 0.1q2.3 1 4.9 0.9h0.3zm-0.8-2.4c-1.7 0-3.4-0.5-4.9-1.5-2.1-1.3-3.5-3.4-4.1-5.7-0.5-2.4 0-4.9 1.3-7 1.3-2 3.3-3.5 5.7-4 2.4-0.5 4.9-0.1 7 1.2 4.2 2.8 5.5 8.5 2.8 12.7-1.4 2.1-3.4 3.5-5.8 4.1q-1 0.2-2 0.2zm0-17.5c-2.7 0-5.4 1.4-7 3.8-2.4 3.9-1.3 9 2.6 11.5 3.8 2.4 8.9 1.3 11.4-2.6 2.5-3.8 1.3-8.9-2.5-11.4-1.4-0.9-2.9-1.3-4.5-1.3z"/><path class="a" d="m561.1 234.2c0-6.2 4.5-11.3 10.4-12.4l-0.5-2.9c-8.4 1.5-14.1 9.5-12.7 17.9l3-0.5q-0.2-1-0.2-2.1z"/><path fill-rule="evenodd" class="c" d="m558.3 237.3c-0.2-0.1-0.4-0.2-0.4-0.4-0.7-4.2 0.2-8.4 2.7-11.9 2.5-3.5 6.1-5.8 10.3-6.5 0.3-0.1 0.5 0.1 0.6 0.3l0.5 2.9c0 0.3-0.2 0.5-0.4 0.5-5.8 1.1-10 6.1-10 12q0 0.9 0.2 2c0 0.2-0.2 0.5-0.4 0.5l-3 0.5c0 0 0 0-0.1 0zm12.3-17.8c-3.7 0.8-7 2.9-9.3 6.1-2.2 3.1-3.1 6.9-2.6 10.7l2.1-0.3q-0.1-0.9-0.1-1.7c0-6.2 4.3-11.5 10.3-12.8l-0.3-2z"/><path class="g" d="m573.7 246.8c-6.2 0-11.4-4.6-12.4-10.5l-3 0.5c1.5 8.4 9.5 14.1 17.9 12.7l-0.5-2.9q-1 0.2-2 0.2z"/><path fill-rule="evenodd" class="c" d="m573.6 250.2q0 0 0 0 0 0 0 0zm-9.2-3c-3.5-2.5-5.8-6.1-6.5-10.3q0-0.2 0.1-0.4 0.1-0.1 0.3-0.2l2.9-0.5q0.2 0 0.4 0.1 0.1 0.1 0.2 0.3c0.9 5.9 6 10.2 11.9 10.2q0.9 0 1.9-0.2c0.3 0 0.5 0.1 0.6 0.4l0.4 2.8c0.1 0.3-0.1 0.5-0.3 0.5q-1.4 0.3-2.7 0.3c-3.3 0-6.5-1.1-9.2-3zm-5.5-10c0.7 3.7 2.9 7 6 9.3 3.2 2.2 7 3.1 10.8 2.6l-0.4-2q-0.8 0.2-1.6 0.2c-6.2 0-11.5-4.4-12.7-10.5 0 0-2.1 0.4-2.1 0.4z"/><path class="f" d="m588.9 231.6c-1.4-8.4-9.4-14.1-17.9-12.7l0.5 2.9q1.1-0.2 2.2-0.2c7 0 12.6 5.6 12.6 12.6 0 6.3-4.6 11.5-10.6 12.4l0.5 2.9c6.3-1.1 11.1-5.9 12.5-11.7q0.3-1.5 0.4-3.1 0-1.5-0.2-3.1z"/><path fill-rule="evenodd" class="c" d="m575.8 250l-0.6-3.8h0.4c6-1 10.3-6 10.3-12 0-6.7-5.5-12.1-12.2-12.1q-1 0-2.1 0.2h-0.5l-0.6-3.7 0.4-0.1c8.7-1.5 17 4.4 18.4 13q0.3 1.7 0.3 3.3-0.1 1.5-0.5 3.1c-1.4 6.2-6.5 11-12.8 12l-0.5 0.1zm0.4-3l0.4 2c5.7-1.2 10.3-5.6 11.6-11.3q0.4-1.5 0.4-3 0.1-1.5-0.2-3c-1.3-8-8.9-13.5-16.9-12.4l0.4 2q0.9-0.1 1.8-0.1c7.2 0 13.1 5.8 13.1 13 0 6.3-4.4 11.6-10.6 12.8z"/><path class="c" d="m541.6 223.4h11.2v49.4h-11.2z"/><path fill-rule="evenodd" class="c" d="m552.8 273.3h-11.2c-0.2 0-0.4-0.2-0.4-0.5v-49.4c0-0.2 0.2-0.4 0.4-0.4h11.2c0.3 0 0.5 0.2 0.5 0.4v49.4c0 0.3-0.2 0.5-0.5 0.5zm-10.7-0.9h10.3v-48.5h-10.3z"/><path class="c" d="m557.6 241.5h11.2v31.3h-11.2z"/><path fill-rule="evenodd" class="c" d="m568.8 273.3h-11.2c-0.2 0-0.4-0.2-0.4-0.5v-31.3c0-0.3 0.2-0.4 0.4-0.4h11.2c0.2 0 0.4 0.1 0.4 0.4v31.3c0 0.3-0.2 0.5-0.4 0.5zm-10.7-0.9h10.2v-30.5h-10.2z"/><path class="c" d="m573.4 255.1h11.1v17.7h-11.1z"/><path fill-rule="evenodd" class="c" d="m584.5 273.3h-11.1c-0.3 0-0.5-0.2-0.5-0.5v-17.7c0-0.2 0.2-0.4 0.5-0.4h11.1c0.3 0 0.5 0.2 0.5 0.4v17.7c0 0.3-0.2 0.5-0.5 0.5zm-10.7-0.9h10.3v-16.8h-10.3z"/><path class="d" d="m540.6 223.4h11.2v48.3h-11.2z"/><path fill-rule="evenodd" class="c" d="m552.2 272.2h-12v-49.2h12zm-11.1-0.9h10.2v-47.4h-10.2z"/><path class="d" d="m556.6 241.5h11.1v30.2h-11.1z"/><path fill-rule="evenodd" class="c" d="m568.2 272.2h-12.1v-31.2h12.1zm-11.2-0.9h10.3v-29.3h-10.3z"/><path class="d" d="m572.4 255.1h11.1v16.6h-11.1z"/><path fill-rule="evenodd" class="c" d="m584 272.2h-12.1v-17.5h12.1zm-11.2-0.9h10.3v-15.7h-10.3z"/><path class="a" d="m551.8 271.7h-11.2v-48.3h11.2z"/><path fill-rule="evenodd" class="c" d="m551.8 272.2h-11.2c-0.2 0-0.4-0.2-0.4-0.5v-48.3c0-0.2 0.2-0.4 0.4-0.4h11.2c0.2 0 0.4 0.2 0.4 0.4v48.3c0 0.3-0.2 0.5-0.4 0.5zm-10.7-0.9h10.2v-47.4h-10.2z"/><path class="c" d="m523 214.7h11.2v58.1h-11.2z"/><path fill-rule="evenodd" class="c" d="m534.2 273.2h-11.2c-0.2 0-0.3-0.2-0.3-0.4v-58.1c0-0.2 0.1-0.3 0.3-0.3h11.2c0.2 0 0.4 0.1 0.4 0.3v58.1c0 0.2-0.2 0.4-0.4 0.4zm-10.9-0.7h10.6v-57.5h-10.6z"/><path class="b" d="m522 214.8h11.2v56.9h-11.2z"/><path fill-rule="evenodd" class="c" d="m533.6 272.2h-12v-57.8h12zm-11.1-0.9h10.2v-56h-10.2z"/><path class="f" d="m567.7 271.7h-11.1v-30.2h11.1z"/><path fill-rule="evenodd" class="c" d="m568.2 272.2h-12.1v-31.2h12.1zm-11.2-0.9h10.3v-29.3h-10.3z"/><path class="b" d="m572.4 255.1h11.1v16.6h-11.1z"/><path fill-rule="evenodd" class="c" d="m584 272.2h-12.1v-17.5h12.1zm-11.2-0.9h10.3v-15.7h-10.3z"/><path class="c" d="m589.3 265.6h11.1v7.3h-11.1z"/><path fill-rule="evenodd" class="c" d="m600.5 273.4h-11.2c-0.3 0-0.5-0.2-0.5-0.5v-7.2c0-0.3 0.2-0.5 0.5-0.5h11.2c0.2 0 0.4 0.2 0.4 0.5v7.2c0 0.3-0.2 0.5-0.4 0.5zm-10.8-1h10.3v-6.3h-10.3z"/><path class="d" d="m588.3 265.6h11.1v6.8h-11.1z"/><path fill-rule="evenodd" class="c" d="m599.9 272.9h-12.1v-7.7h12.1zm-11.2-0.9h10.3v-5.8h-10.3z"/><path class="a" d="m588.3 265.6h11.1v6.8h-11.1z"/><path fill-rule="evenodd" class="c" d="m599.4 272.9h-11.1c-0.3 0-0.5-0.2-0.5-0.5v-6.7c0-0.3 0.2-0.5 0.5-0.5h11.1c0.3 0 0.5 0.2 0.5 0.5v6.7c0 0.3-0.2 0.5-0.5 0.5zm-10.7-0.9h10.3v-5.9h-10.3z"/><path class="d" d="m66.9 324.2h32.9v4.2h-32.9z"/><path fill-rule="evenodd" class="c" d="m99.8 328.9h-32.9c-0.3 0-0.5-0.2-0.5-0.5v-4.2q0-0.2 0.1-0.4 0.2-0.1 0.4-0.1h32.9q0.2 0 0.4 0.1 0.1 0.2 0.1 0.4v4.2c0 0.3-0.2 0.5-0.5 0.5zm-32.4-1h31.9v-3.2h-31.9z"/><path class="d" d="m80.9 316.3h18.9v2.8h-18.9z"/><path fill-rule="evenodd" class="c" d="m99.8 319.6l-18.9-0.1q-0.2 0-0.3-0.1-0.2-0.1-0.2-0.4v-2.7c0-0.3 0.2-0.5 0.5-0.5h18.9q0.2 0 0.4 0.2 0.1 0.1 0.1 0.3v2.7c0 0.3-0.2 0.5-0.5 0.5zm-18.4-1h17.9v-1.7h-17.9z"/><path class="d" d="m80.9 308.4h18.9v2.8h-18.9z"/><path fill-rule="evenodd" class="c" d="m99.8 311.7h-18.9c-0.3 0-0.5-0.3-0.5-0.5v-2.8q0-0.2 0.2-0.3 0.1-0.2 0.3-0.2h18.9q0.2 0 0.4 0.2 0.1 0.1 0.1 0.3v2.8c0 0.3-0.2 0.5-0.5 0.5zm-18.4-1h17.9v-1.8l-17.9 0.1z"/><path class="c" d="m163.7 323.6c2.5-16.3-8.7-31.5-25-34-16.3-2.5-31.5 8.7-34 25-2.5 16.3 8.6 31.5 24.9 34 16.4 2.5 31.6-8.7 34.1-25z"/><path fill-rule="evenodd" class="c" d="m134.2 349.5q-2.3 0-4.6-0.4c-8-1.2-15.1-5.5-19.9-12-4.8-6.6-6.8-14.6-5.5-22.6 2.5-16.5 18-27.9 34.6-25.4 8 1.2 15.1 5.5 19.9 12 4.8 6.6 6.7 14.6 5.5 22.6-2.3 15-15.3 25.8-30 25.8zm0-59.8c-14.3 0-26.8 10.4-29.1 25-1.1 7.7 0.8 15.5 5.4 21.8 4.6 6.3 11.5 10.4 19.2 11.6 16 2.5 31-8.5 33.5-24.5 1.2-7.8-0.7-15.5-5.4-21.9-4.6-6.3-11.4-10.4-19.2-11.6q-2.2-0.4-4.5-0.4z"/><path class="f" d="m153.1 342.6c-14 8.8-32.4 4.6-41.2-9.4-8.8-14-4.6-32.4 9.4-41.2 14-8.8 32.4-4.6 41.2 9.4 8.8 14 4.6 32.4-9.4 41.2z"/><path fill-rule="evenodd" class="c" d="m137.2 347.7q-2.3 0-4.6-0.4c-8-1.2-15.1-5.5-19.9-12-4.8-6.6-6.8-14.6-5.5-22.6 2.5-16.5 18.1-27.9 34.6-25.4 16.6 2.5 28 18.1 25.4 34.6-2.3 15-15.3 25.8-30 25.8zm0-59.8c-14.3 0-26.8 10.5-29 25-1.2 7.7 0.7 15.5 5.3 21.8 4.7 6.3 11.5 10.5 19.2 11.6 16 2.5 31.1-8.5 33.5-24.5 2.5-16-8.6-31-24.6-33.5q-2.2-0.3-4.4-0.4z"/><path class="f" d="m161 306.8c-2.5-5.7-7-10.4-12.8-13.1"/><path class="d" d="m161 307.6c-0.3-0.1-0.5-0.2-0.7-0.5-2.4-5.6-6.9-10.2-12.4-12.7-0.4-0.2-0.6-0.7-0.4-1 0.2-0.4 0.6-0.6 1-0.4 5.9 2.7 10.6 7.5 13.2 13.5 0.2 0.4 0 0.8-0.4 1q-0.1 0-0.3 0z"/><path class="p" d="m164.5 304.7l31.9-13.8"/><path class="c" d="m164.5 305.2c-0.2 0-0.4-0.1-0.5-0.3-0.1-0.3 0-0.6 0.3-0.7l31.9-13.8c0.3-0.1 0.6 0 0.7 0.3 0.1 0.3 0 0.6-0.3 0.7l-31.9 13.7q-0.1 0.1-0.2 0.1z"/><path class="d" d="m194.9 291.6l1.4-3.8 3.8 1.4-1.4 3.8z"/><path fill-rule="evenodd" class="c" d="m198.7 293.5q-0.1 0-0.1-0.1l-3.9-1.3q-0.2-0.1-0.3-0.3 0-0.2 0-0.4l1.4-3.8c0.1-0.3 0.4-0.4 0.6-0.3l3.9 1.4c0.2 0.1 0.4 0.4 0.3 0.6l-1.4 3.8c-0.1 0.2-0.3 0.4-0.5 0.4zm-3.2-2.2l2.9 1 1.1-2.9-2.9-1z"/><path class="i" d="m133.4 325.1c0-4.6-3.7-8.3-8.3-8.3-4.6 0-8.3 3.7-8.3 8.3 0 0.1 16.6 0.1 16.6 0z"/><path fill-rule="evenodd" class="c" d="m126 325.7c-2.2 0-4.5 0-6.3 0q-3.4 0-3.4-0.6c0-4.8 3.9-8.8 8.8-8.8 4.9 0 8.8 4 8.8 8.8q0 0.6-7.9 0.6zm-8.7-1c2.4 0 13.2 0 15.6 0-0.2-4.1-3.7-7.4-7.8-7.4-4.2 0-7.6 3.3-7.8 7.4z"/><path class="i" d="m125.2 315.6c-2.7 0-4.8-2.1-4.8-4.7 0-2.6 2.1-4.7 4.8-4.7 2.6 0 4.7 2.1 4.7 4.7 0 2.6-2.1 4.7-4.7 4.7z"/><path fill-rule="evenodd" class="c" d="m125.2 316.1c-2.9 0-5.3-2.3-5.3-5.2 0-2.9 2.4-5.2 5.3-5.2 2.8 0 5.2 2.3 5.2 5.2 0 2.9-2.4 5.2-5.2 5.2zm0-9.4c-2.4 0-4.3 1.9-4.3 4.2 0 2.4 1.9 4.3 4.3 4.3 2.3 0 4.2-1.9 4.2-4.3 0-2.3-1.9-4.2-4.2-4.2z"/><path class="i" d="m157.8 325.1c0-4.6-3.7-8.3-8.3-8.3-4.6 0-8.3 3.7-8.3 8.3 0 0.1 16.6 0.1 16.6 0z"/><path fill-rule="evenodd" class="c" d="m150.4 325.7c-2.2 0-4.5 0-6.3 0q-3.5 0-3.5-0.6c0-4.8 4-8.8 8.9-8.8 4.8 0 8.8 4 8.8 8.8q0 0.6-7.9 0.6zm-8.7-1c2.4 0 13.2 0 15.6 0-0.3-4.1-3.7-7.4-7.8-7.4-4.2 0-7.6 3.3-7.8 7.4z"/><path class="i" d="m144.8 310.9c0 2.6 2.1 4.8 4.7 4.8 2.6 0 4.8-2.2 4.8-4.8 0-2.6-2.2-4.7-4.8-4.7-2.6 0-4.7 2.1-4.7 4.7z"/><path fill-rule="evenodd" class="c" d="m149.5 316.1c-2.8 0-5.2-2.3-5.2-5.2 0-2.9 2.4-5.2 5.2-5.2 2.9 0 5.3 2.3 5.3 5.2 0 2.9-2.4 5.2-5.3 5.2zm0-9.4c-2.3 0-4.2 1.9-4.2 4.2 0 2.4 1.9 4.3 4.2 4.3 2.4 0 4.3-1.9 4.3-4.3 0-2.3-1.9-4.2-4.3-4.2z"/><path class="i" d="m146.3 327.7c0-5.2-4.2-9.5-9.4-9.5-5.2 0-9.5 4.3-9.5 9.5 0 0 18.9 0 18.9 0z"/><path fill-rule="evenodd" class="c" d="m137.9 328.2c-2.5 0-5.1 0-7.1 0q-3.9 0-3.9-0.5c0-5.5 4.5-10 10-10 5.5 0 9.9 4.5 9.9 10q0 0.5-8.9 0.5zm-10-1c2.7 0 15.3 0 17.9 0-0.2-4.7-4.1-8.5-8.9-8.5-4.8 0-8.7 3.8-9 8.5z"/><path class="i" d="m131.6 311.6c0 2.9 2.4 5.3 5.4 5.3 2.9 0 5.3-2.4 5.3-5.3 0-3-2.4-5.4-5.3-5.4-3 0-5.4 2.4-5.4 5.4z"/><path fill-rule="evenodd" class="c" d="m136.9 317.4c-3.2 0-5.8-2.6-5.8-5.8 0-3.3 2.6-5.9 5.8-5.9 3.3 0 5.9 2.6 5.9 5.9 0 3.2-2.6 5.8-5.9 5.8zm0-10.7c-2.6 0-4.8 2.2-4.8 4.9 0 2.6 2.2 4.8 4.8 4.8 2.7 0 4.9-2.2 4.9-4.8 0-2.7-2.2-4.9-4.9-4.9z"/><path class="d" d="m68.8 145.7h32.9v4.2h-32.9z"/><path fill-rule="evenodd" class="c" d="m68.8 150.4q-0.2 0-0.4-0.2-0.1-0.1-0.1-0.3v-4.2c0-0.3 0.2-0.5 0.5-0.5h32.9c0.3 0 0.5 0.2 0.5 0.5v4.2q0 0.2-0.1 0.3-0.2 0.2-0.4 0.2zm0.5-4.2v3.2h32v-3.2z"/><path class="d" d="m82.8 155h18.9v2.8h-18.9z"/><path fill-rule="evenodd" class="c" d="m82.8 158.3c-0.3-0.1-0.5-0.3-0.5-0.6v-2.7q0-0.2 0.2-0.3 0.1-0.2 0.3-0.2h18.9c0.3 0 0.5 0.2 0.5 0.5v2.7q0 0.3-0.1 0.4-0.2 0.1-0.4 0.1zm0.5-2.7v1.7h18v-1.7z"/><path class="d" d="m82.8 162.9h18.9v2.7h-18.9z"/><path fill-rule="evenodd" class="c" d="m82.8 166.1q-0.2 0-0.3-0.1-0.2-0.2-0.2-0.4v-2.7c0-0.3 0.2-0.5 0.5-0.5h18.9q0.2 0 0.4 0.1 0.1 0.2 0.1 0.4v2.7c0 0.3-0.2 0.5-0.5 0.5h-18.9zm0.5-2.7v1.7h17.9v-1.7z"/><path class="p" d="m166.4 169.4l31.9 13.8"/><path class="c" d="m198.3 183.7q-0.1 0-0.2-0.1l-31.9-13.7c-0.3-0.1-0.4-0.4-0.3-0.7 0.1-0.2 0.4-0.4 0.7-0.2l31.9 13.7c0.3 0.1 0.4 0.4 0.3 0.7-0.1 0.2-0.3 0.3-0.5 0.3z"/><path class="d" d="m200.6 181.1l1.4 3.8-3.8 1.4-1.4-3.8z"/><path fill-rule="evenodd" class="c" d="m198.2 186.8c-0.2 0-0.4-0.1-0.5-0.3l-1.4-3.9q0-0.2 0-0.3 0.1-0.2 0.3-0.3l3.9-1.4q0.1-0.1 0.3 0 0.2 0.1 0.3 0.3l1.4 3.8c0.1 0.3-0.1 0.6-0.3 0.7l-3.8 1.4q-0.1 0-0.2 0zm-0.8-4l1.1 2.9 2.9-1.1-1.1-2.9z"/><path class="c" d="m165.6 154.7c2.5 16.3-8.7 31.5-25 34-16.3 2.5-31.5-8.7-34-25-2.5-16.3 8.6-31.5 24.9-34 16.4-2.5 31.6 8.7 34.1 25z"/><path fill-rule="evenodd" class="c" d="m136.1 189.6c-14.8 0-27.7-10.8-30-25.8-1.3-8 0.7-16 5.5-22.5 4.8-6.6 11.9-10.9 19.9-12.1 16.5-2.5 32.1 8.9 34.6 25.4 2.5 16.6-8.9 32.1-25.4 34.6q-2.4 0.4-4.6 0.4zm0-59.8q-2.2 0-4.5 0.4c-7.7 1.2-14.5 5.3-19.2 11.6-4.6 6.4-6.5 14.1-5.3 21.9 2.4 16 17.4 27 33.4 24.5 16-2.4 27.1-17.4 24.6-33.4-2.2-14.5-14.8-25-29-25z"/><path class="b" d="m163.9 173.4c-9.2 13.7-27.7 17.4-41.4 8.2-13.8-9.2-17.4-27.7-8.2-41.5 9.2-13.7 27.7-17.4 41.4-8.2 13.7 9.2 17.4 27.7 8.2 41.5z"/><path fill-rule="evenodd" class="c" d="m139 187.1c-6.4 0-12.6-2-17.9-5.9-6.5-4.8-10.8-11.8-12-19.8-2.6-16.6 8.8-32.1 25.4-34.7 8-1.2 16 0.8 22.6 5.6 6.5 4.8 10.8 11.8 12 19.8 2.5 16.6-8.9 32.1-25.4 34.7q-2.4 0.3-4.7 0.3zm0.2-59.7q-2.3 0-4.6 0.3c-16 2.5-27 17.5-24.5 33.5 1.1 7.7 5.3 14.6 11.6 19.2 6.3 4.7 14.1 6.6 21.8 5.4 16.1-2.5 27.1-17.5 24.6-33.5-1.2-7.8-5.3-14.6-11.6-19.2-5.1-3.8-11.1-5.7-17.3-5.7z"/><path class="d" d="m162.7 146.6c-0.3 0-0.5-0.1-0.7-0.4-2.5-5.6-6.9-10.2-12.4-12.8-0.4-0.1-0.6-0.6-0.4-1 0.2-0.3 0.6-0.5 1-0.3 5.9 2.7 10.6 7.5 13.2 13.5 0.2 0.3 0 0.8-0.4 1q-0.1 0-0.3 0z"/><path class="i" d="m122.9 146.4v21.1l15.9 6.1v-20.8l-15.9-6.4z"/><path fill-rule="evenodd" class="c" d="m138.8 174.1q-0.1 0-0.2-0.1l-15.9-6.1c-0.2 0-0.3-0.2-0.3-0.4v-21.1q0-0.2 0.2-0.4 0.2-0.1 0.5 0l15.9 6.4c0.1 0.1 0.3 0.3 0.3 0.5v20.7c0 0.1-0.1 0.3-0.3 0.4q-0.1 0.1-0.2 0.1zm-15.4-7l14.9 5.7v-19.6l-14.9-6.1z"/><path class="d" d="m154.7 146.4v21.1l-15.9 6.1v-20.8l15.9-6.4z"/><path fill-rule="evenodd" class="c" d="m138.8 174.1q-0.2 0-0.3-0.1c-0.1-0.1-0.2-0.3-0.2-0.4v-20.8c0-0.1 0.1-0.3 0.3-0.4l15.9-6.5c0.1 0 0.3 0 0.4 0.1 0.2 0.1 0.2 0.3 0.2 0.4v21.1c0 0.2-0.1 0.4-0.3 0.4l-15.8 6.1q-0.1 0-0.2 0.1zm0.5-20.9v19.6l14.8-5.7v-19.9z"/><path class="i" d="m154.7 146.4v21.1l-15.9 6.1v-20.8l15.9-6.4z"/><path fill-rule="evenodd" class="c" d="m138.8 174.1q-0.2 0-0.3-0.1c-0.1-0.1-0.2-0.3-0.2-0.4v-20.8c0-0.1 0.1-0.3 0.3-0.4l15.9-6.5c0.1 0 0.3 0 0.4 0.1 0.2 0.1 0.2 0.3 0.2 0.4v21.1c0 0.2-0.1 0.4-0.3 0.4l-15.8 6.1q-0.1 0-0.2 0.1zm0.5-20.9v19.6l14.8-5.7v-19.9z"/><path class="c" d="m148.5 148.9v4.6l-3.6 1.4v-4.6l3.6-1.4z"/><path fill-rule="evenodd" class="c" d="m144.9 155.4q-0.1 0-0.2-0.1c-0.2-0.1-0.3-0.3-0.3-0.4v-4.6c0-0.2 0.2-0.4 0.4-0.5l3.5-1.4c0.1-0.1 0.3 0 0.4 0 0.2 0.1 0.3 0.3 0.3 0.5v4.6c0 0.2-0.2 0.4-0.4 0.5l-3.5 1.3q-0.1 0.1-0.2 0.1zm0.5-4.8v3.6l2.6-1v-3.6z"/><path class="d" d="m138.8 140l15.8 6.4-15.8 6.4-15.9-6.4 15.9-6.4z"/><path fill-rule="evenodd" class="c" d="m138.8 153.3q-0.1 0.1-0.2 0l-15.9-6.4c-0.2-0.1-0.3-0.3-0.3-0.5 0-0.2 0.1-0.4 0.3-0.5l15.9-6.4q0.2 0 0.4 0l15.8 6.4c0.2 0.1 0.3 0.3 0.3 0.5 0 0.2-0.1 0.4-0.3 0.5l-15.8 6.4q-0.1 0-0.2 0zm-14.6-6.9l14.6 5.9 14.5-5.9-14.5-5.9z"/><g style="opacity:.1"><path class="d" d="m138.8 140l15.8 6.4-15.8 6.4-15.9-6.4 15.9-6.4z"/><path fill-rule="evenodd" class="c" d="m138.8 153.3q-0.1 0.1-0.2 0l-15.9-6.4c-0.2-0.1-0.3-0.3-0.3-0.5 0-0.2 0.1-0.4 0.3-0.5l15.9-6.4q0.2 0 0.4 0l15.8 6.4c0.2 0.1 0.3 0.3 0.3 0.5 0 0.2-0.1 0.4-0.3 0.5l-15.8 6.4q-0.1 0-0.2 0zm-14.6-6.9l14.6 5.9 14.5-5.9-14.5-5.9z"/></g><path class="i" d="m138.8 140l15.8 6.4-15.8 6.4-15.9-6.4 15.9-6.4z"/><path fill-rule="evenodd" class="c" d="m138.8 153.3q-0.1 0.1-0.2 0l-15.9-6.4c-0.2-0.1-0.3-0.3-0.3-0.5 0-0.2 0.1-0.4 0.3-0.5l15.9-6.4q0.2 0 0.4 0l15.8 6.4c0.2 0.1 0.3 0.3 0.3 0.5 0 0.2-0.1 0.4-0.3 0.5l-15.8 6.4q-0.1 0-0.2 0zm-14.6-6.9l14.6 5.9 14.5-5.9-14.5-5.9z"/><path class="c" d="m144.9 150.2l-14-6.9 3.3-1.4 14.3 7-3.6 1.3z"/><path fill-rule="evenodd" class="c" d="m144.9 150.7q-0.1 0-0.2-0.1l-14-6.9c-0.1-0.1-0.3-0.3-0.3-0.5 0-0.1 0.2-0.3 0.3-0.4l3.3-1.4q0.2-0.1 0.4 0l14.3 7c0.2 0.1 0.3 0.3 0.3 0.5 0 0.2-0.2 0.4-0.4 0.4l-3.5 1.4q-0.1 0-0.2 0zm-12.8-7.4l12.9 6.4 2.2-0.9-13-6.4z"/><path class="p" d="m537 308.5l-32-13.8"/><path class="c" d="m537 309q-0.1 0-0.2-0.1l-32-13.7c-0.2-0.2-0.3-0.4-0.2-0.7 0.1-0.3 0.4-0.4 0.6-0.3l32 13.8c0.3 0.1 0.4 0.4 0.3 0.7-0.1 0.1-0.3 0.3-0.5 0.3z"/><path class="d" d="m502.7 296.8l-1.4-3.9 3.9-1.4 1.3 3.9z"/><path fill-rule="evenodd" class="c" d="m502.8 297.3c-0.2 0-0.4-0.2-0.5-0.4l-1.4-3.8q-0.1-0.2 0-0.4 0.1-0.2 0.3-0.2l3.8-1.4c0.3-0.1 0.6 0 0.7 0.3l1.4 3.8c0 0.3-0.1 0.6-0.3 0.7l-3.9 1.3q-0.1 0.1-0.1 0.1zm-0.8-4.1l1.1 2.9 2.8-1-1-2.9c0 0-2.9 1-2.9 1z"/><path class="c" d="m537.8 327.4c-2.5-16.3 8.7-31.5 25-34 16.3-2.5 31.5 8.7 34 25 2.5 16.3-8.7 31.5-25 34-16.3 2.5-31.5-8.6-34-24.9z"/><path fill-rule="evenodd" class="c" d="m567.3 353.3c-14.7 0-27.7-10.8-30-25.8-2.5-16.5 8.9-32 25.4-34.6 16.5-2.5 32.1 8.9 34.6 25.4 1.3 8-0.7 16.1-5.5 22.6-4.8 6.5-11.9 10.8-19.9 12.1q-2.3 0.3-4.6 0.3zm0-59.7q-2.2 0-4.4 0.3c-16 2.5-27.1 17.5-24.6 33.5 2.2 14.5 14.8 24.9 29 24.9q2.2 0 4.5-0.3c7.7-1.2 14.6-5.4 19.2-11.7 4.6-6.3 6.5-14.1 5.3-21.8-2.2-14.5-14.7-24.9-29-24.9z"/><path class="f" d="m588.8 338.2c-9.4 13.6-28 16.9-41.6 7.4-13.5-9.4-16.8-28-7.4-41.5 9.5-13.6 28-16.9 41.6-7.5 13.5 9.5 16.9 28.1 7.4 41.6z"/><path fill-rule="evenodd" class="c" d="m564.3 351.5c-14.8 0-27.7-10.8-30-25.8-2.6-16.5 8.8-32 25.4-34.6 16.5-2.5 32.1 8.9 34.6 25.4 1.2 8-0.7 16.1-5.5 22.6-4.8 6.5-11.9 10.8-19.9 12q-2.3 0.4-4.6 0.4zm-29-25.9c2.4 16 17.5 27 33.4 24.5 7.8-1.2 14.6-5.3 19.3-11.6 4.6-6.3 6.5-14.1 5.3-21.8-2.4-16-17.5-27.1-33.5-24.6-16 2.5-27 17.5-24.5 33.5z"/><path class="d" d="m588.1 311.9c-0.2 0-0.5-0.2-0.6-0.5-2.5-5.6-7-10.1-12.5-12.7-0.4-0.2-0.6-0.6-0.4-1 0.2-0.4 0.6-0.6 1-0.4 5.9 2.8 10.6 7.5 13.2 13.5 0.2 0.4 0 0.8-0.4 1q-0.1 0.1-0.3 0.1z"/><path class="d" d="m601.6 328h33v4.2h-33z"/><path fill-rule="evenodd" class="c" d="m601.6 332.7q-0.2 0-0.3-0.1-0.2-0.2-0.2-0.4v-4.2c0-0.3 0.3-0.5 0.5-0.5h33q0.2 0 0.4 0.1 0.1 0.2 0.1 0.4v4.2c0 0.3-0.2 0.5-0.5 0.5 0 0-33 0-33 0zm0.5-4.2v3.2h32v-3.2c0 0-32 0-32 0z"/><path class="d" d="m601.6 320.1h19v2.8h-19z"/><path fill-rule="evenodd" class="c" d="m601.6 323.4c-0.2 0-0.5-0.3-0.5-0.5v-2.8q0-0.2 0.2-0.3 0.1-0.2 0.3-0.2h19c0.2 0 0.5 0.2 0.5 0.5v2.8q0 0.2-0.2 0.3-0.1 0.1-0.3 0.2zm0.5-2.8v1.8h17.9v-1.8z"/><path class="d" d="m601.6 312.2h19v2.8h-19z"/><path fill-rule="evenodd" class="c" d="m601.6 315.5c-0.2 0-0.5-0.2-0.5-0.5v-2.8q0-0.2 0.2-0.3 0.1-0.2 0.3-0.2h19c0.2 0 0.5 0.3 0.5 0.5v2.8q0 0.2-0.2 0.3-0.1 0.2-0.3 0.2zm0.5-2.8v1.8h17.9v-1.8z"/><path class="k" d="m556.2 314.5h3v-4.1c0-3 2.4-5.4 5.4-5.4 3 0 5.4 2.4 5.4 5.4v4.1h3v-4.1c0-4.7-3.8-8.4-8.4-8.4-4.6 0-8.4 3.7-8.4 8.4v4.1z"/><path fill-rule="evenodd" class="c" d="m570 315c-0.3 0-0.5-0.2-0.5-0.5v-4.1c0-2.7-2.2-4.9-4.9-4.9-2.6 0-4.8 2.2-4.8 4.9v4.1c0 0.3-0.3 0.5-0.5 0.5h-3.1c-0.2 0-0.5-0.2-0.5-0.5v-4.1c0-4.9 4-8.9 8.9-8.9 4.9 0 8.9 4 8.9 8.9v4.1c0 0.3-0.2 0.5-0.5 0.5zm2.6-1v-3.6c0-4.4-3.6-7.9-7.9-7.9-4.4 0-7.9 3.5-7.9 7.9v3.6h2v-3.6c0-3.3 2.6-5.9 5.9-5.9 3.2 0 5.8 2.6 5.8 5.9v3.6z"/><path class="d" d="m577.1 334.8c0 0.3-0.3 0.7-0.7 0.7h-23.6c-0.4 0-0.7-0.4-0.7-0.7v-19.6c0-0.4 0.3-0.7 0.7-0.7h23.6c0.4 0 0.7 0.3 0.7 0.7z"/><path fill-rule="evenodd" class="c" d="m576.4 336h-23.6c-0.6 0-1.2-0.6-1.2-1.2v-19.6c0-0.6 0.5-1.2 1.2-1.2h23.6c0.7 0 1.2 0.6 1.2 1.2v19.6c0 0.6-0.5 1.2-1.2 1.2zm-23.6-21c-0.1 0-0.2 0.1-0.2 0.2v19.6c0 0.1 0.1 0.2 0.2 0.2h23.6c0.1 0 0.2-0.1 0.2-0.2v-19.6c0-0.1-0.1-0.2-0.2-0.2z"/><path class="c" d="m563.6 325c-0.8-0.4-1.3-1.1-1.3-2 0-1.3 1.1-2.3 2.3-2.3 1.3 0 2.3 1 2.3 2.3 0 0.8-0.5 1.6-1.2 2l1 3.4c0.1 0.5-0.2 0.9-0.7 0.9h-2.7c-0.4 0-0.8-0.4-0.6-0.9z"/><path fill-rule="evenodd" class="c" d="m566 329.8h-2.7c-0.4 0-0.7-0.1-0.9-0.4-0.3-0.3-0.3-0.7-0.2-1.1l0.8-3.1c-0.7-0.5-1.2-1.3-1.2-2.2 0-1.6 1.3-2.8 2.8-2.8 1.6 0 2.8 1.2 2.8 2.8 0 0.8-0.4 1.7-1.1 2.2l0.9 3.1c0.1 0.4 0 0.7-0.2 1-0.3 0.3-0.6 0.5-1 0.5zm-1.4-8.6c-1 0-1.8 0.8-1.8 1.8 0 0.6 0.4 1.3 1 1.6 0.3 0.1 0.4 0.3 0.3 0.5l-1 3.5q0 0.1 0.1 0.1c0 0.1 0 0.1 0.1 0.1h2.7c0.1 0 0.1 0 0.2-0.1 0 0 0 0 0-0.1l-1-3.5c0-0.2 0.1-0.5 0.3-0.6 0.6-0.3 0.9-0.9 0.9-1.5 0-1-0.8-1.8-1.8-1.8z"/><path class="d" d="m599.7 157.9h33v4.2h-33z"/><path fill-rule="evenodd" class="c" d="m632.7 162.6h-33c-0.2 0-0.5-0.2-0.5-0.5v-4.2q0-0.2 0.2-0.3 0.1-0.2 0.3-0.2h33c0.3 0 0.5 0.2 0.5 0.5v4.2q0 0.2-0.1 0.4-0.2 0.1-0.4 0.1zm-32.5-1h32v-3.2h-32z"/><path class="d" d="m599.7 167.3l19-0.1v2.8h-19z"/><path fill-rule="evenodd" class="c" d="m618.7 170.5h-19q-0.2 0-0.3-0.2-0.2-0.1-0.2-0.3v-2.8c0-0.2 0.3-0.5 0.5-0.5h19q0.2 0.1 0.3 0.2 0.2 0.1 0.2 0.3v2.8c0 0.3-0.3 0.5-0.5 0.5zm-18.5-1h18v-1.7h-18z"/><path class="d" d="m599.7 175.1h19v2.8h-19z"/><path fill-rule="evenodd" class="c" d="m618.7 178.4h-19q-0.2 0-0.3-0.2-0.2-0.1-0.2-0.3v-2.8c0-0.3 0.3-0.5 0.5-0.5h19c0.2 0 0.5 0.2 0.5 0.5v2.8q0 0.2-0.2 0.3-0.1 0.2-0.3 0.2zm-18.5-1h18v-1.8h-18z"/><path class="p" d="m535.1 181.6l-32 13.8"/><path class="c" d="m503.1 195.9c-0.2 0-0.3-0.1-0.4-0.3-0.1-0.2 0-0.5 0.2-0.7l32-13.7c0.3-0.1 0.6 0 0.7 0.2 0.1 0.3 0 0.6-0.3 0.7l-32 13.8q-0.1 0-0.2 0z"/><path class="d" d="m504.7 194.7l-1.4 3.8-3.9-1.4 1.4-3.8z"/><path fill-rule="evenodd" class="c" d="m503.3 199q-0.1 0-0.2 0l-3.8-1.4q-0.2-0.1-0.3-0.2-0.1-0.2 0-0.4l1.4-3.8c0.1-0.3 0.4-0.4 0.6-0.4l3.9 1.4c0.2 0.1 0.3 0.4 0.3 0.7l-1.4 3.8c-0.1 0.2-0.3 0.3-0.5 0.3zm-3.2-2.2l2.9 1.1 1.1-2.9-2.9-1c0 0-1.1 2.8-1.1 2.8z"/><path class="c" d="m535.9 166.9c-2.5 16.3 8.7 31.6 25 34.1 16.3 2.5 31.5-8.7 34-25 2.5-16.3-8.7-31.6-25-34.1-16.3-2.5-31.5 8.7-34 25z"/><path fill-rule="evenodd" class="c" d="m565.5 201.8q-2.4 0-4.7-0.3c-16.5-2.6-27.9-18.1-25.4-34.7 1.2-8 5.5-15 12-19.8 6.6-4.8 14.6-6.8 22.6-5.6 8 1.3 15.1 5.5 19.9 12.1 4.8 6.5 6.7 14.6 5.5 22.6-1.2 8-5.5 15-12 19.8-5.3 3.9-11.5 5.9-17.9 5.9zm-0.2-59.7c-6.2 0-12.2 1.9-17.3 5.7-6.3 4.6-10.4 11.4-11.6 19.2-2.5 16 8.6 31 24.6 33.5 7.7 1.2 15.5-0.7 21.8-5.4 6.3-4.6 10.4-11.4 11.6-19.2 1.2-7.7-0.7-15.5-5.3-21.8-4.7-6.3-11.5-10.5-19.2-11.7q-2.3-0.3-4.6-0.3z"/><path class="b" d="m579.5 193.5c-13.6 9.4-32.2 6.1-41.6-7.4-9.5-13.6-6.2-32.2 7.4-41.6 13.5-9.5 32.1-6.2 41.6 7.4 9.4 13.5 6.1 32.1-7.4 41.6z"/><path fill-rule="evenodd" class="c" d="m562.4 199.4q-2.3 0-4.6-0.4c-16.6-2.5-28-18.1-25.4-34.6 2.5-16.6 18.1-28 34.6-25.4 16.5 2.5 28 18.1 25.4 34.6-2.3 15-15.3 25.8-30 25.8zm-29-34.9c-2.5 16 8.5 31.1 24.5 33.5 16 2.5 31.1-8.6 33.5-24.6 2.5-16-8.6-31-24.6-33.4-16-2.5-31 8.5-33.4 24.5z"/><path class="d" d="m585.1 158.6c-0.3 0-0.6-0.1-0.7-0.4-2.5-5.6-7-10.2-12.5-12.8-0.4-0.1-0.6-0.6-0.4-1 0.2-0.3 0.6-0.5 1-0.3 5.9 2.7 10.6 7.5 13.2 13.5 0.2 0.4 0 0.8-0.3 1q-0.2 0-0.3 0z"/><path class="d" d="m547.8 155.3c0-0.8 0.6-1.4 1.4-1.4h25.5c0.8 0 1.4 0.6 1.4 1.4v29.7c0 0.8-0.6 1.4-1.4 1.4h-25.5c-0.8 0-1.4-0.6-1.4-1.4z"/><path fill-rule="evenodd" class="c" d="m574.7 186.9h-25.5c-1.1 0-1.9-0.9-1.9-1.9v-29.7c0-1 0.8-1.9 1.9-1.9h25.5c1.1 0 1.9 0.8 1.9 1.9v29.7c0 1-0.8 1.9-1.9 1.9zm-25.5-32.5c-0.5 0-0.9 0.4-0.9 0.9v29.7c0 0.5 0.4 0.9 0.9 0.9h25.5c0.5 0 0.9-0.4 0.9-0.9v-29.7c0-0.5-0.4-0.9-0.9-0.9z"/><path class="c" d="m553.3 155.6c0-1.9 1.5-3.5 3.4-3.5h10.4c1.9 0 3.5 1.6 3.5 3.5 0 0-17.3 0-17.3 0z"/><path fill-rule="evenodd" class="c" d="m561.4 156.1c-2.1 0-4.1 0-5.6 0q-3 0-3-0.5c0-2.2 1.7-4 3.9-4h10.4c2.2 0 4 1.8 4 4q0 0.5-3.4 0.5c-1.8 0-4 0-6.3 0zm-7.6-1c2.5 0 13.7 0 16.2 0-0.2-1.4-1.4-2.5-2.9-2.5h-10.4c-1.4 0-2.7 1.1-2.9 2.5z"/><path class="c" d="m561.9 155.1c-1.6 0-3-1.4-3-3 0-1.7 1.4-3 3-3 1.7 0 3 1.3 3 3 0 1.6-1.3 3-3 3z"/><path fill-rule="evenodd" class="c" d="m561.9 155.6c-1.9 0-3.5-1.6-3.5-3.5 0-1.9 1.6-3.5 3.5-3.5 1.9 0 3.5 1.6 3.5 3.5 0 1.9-1.6 3.5-3.5 3.5zm0-6c-1.4 0-2.5 1.1-2.5 2.5 0 1.4 1.1 2.5 2.5 2.5 1.4 0 2.5-1.1 2.5-2.5 0-1.4-1.1-2.5-2.5-2.5z"/><path class="i" d="m563.1 151.7c0 0.6-0.5 1.2-1.2 1.2-0.7 0-1.2-0.5-1.2-1.2 0-0.7 0.5-1.3 1.2-1.3 0.7 0.1 1.2 0.6 1.2 1.3z"/><path fill-rule="evenodd" class="c" d="m561.9 153.4c-0.9 0-1.7-0.8-1.7-1.7 0-1 0.8-1.8 1.7-1.8 1 0 1.7 0.8 1.7 1.8 0 0.9-0.7 1.7-1.7 1.7zm0-2.4c-0.4 0-0.7 0.3-0.7 0.7 0 0.4 0.3 0.7 0.7 0.7 0.4 0 0.7-0.3 0.7-0.7 0-0.4-0.3-0.7-0.7-0.7z"/><path class="a" d="m571.4 163h-18.4c-0.2 0-0.5-0.2-0.5-0.5 0-0.3 0.3-0.5 0.5-0.5h18.4c0.2 0 0.5 0.2 0.5 0.5 0 0.3-0.3 0.5-0.5 0.5z"/><path class="a" d="m565.4 160.7h-6.4c-0.2 0-0.5-0.2-0.5-0.5 0-0.3 0.3-0.5 0.5-0.5h6.4c0.3 0 0.5 0.2 0.5 0.5 0 0.3-0.3 0.5-0.5 0.5z"/><path class="a" d="m565.4 168.5h-6.4c-0.2 0-0.5-0.2-0.5-0.5 0-0.3 0.3-0.5 0.5-0.5h6.4c0.3 0 0.5 0.2 0.5 0.5 0 0.3-0.3 0.5-0.5 0.5z"/><path class="a" d="m565.4 176.6h-6.4c-0.2 0-0.5-0.2-0.5-0.5 0-0.3 0.3-0.5 0.5-0.5h6.4c0.3 0 0.5 0.2 0.5 0.5 0 0.3-0.3 0.5-0.5 0.5z"/><path class="a" d="m571.4 165.4h-18.4c-0.2 0-0.5-0.2-0.5-0.5 0-0.3 0.3-0.5 0.5-0.5h18.4c0.2 0 0.5 0.2 0.5 0.5 0 0.3-0.3 0.5-0.5 0.5z"/><path class="a" d="m571.4 171.3h-18.4c-0.2 0-0.5-0.2-0.5-0.5 0-0.3 0.3-0.5 0.5-0.5h18.4c0.2 0 0.5 0.2 0.5 0.5 0 0.3-0.3 0.5-0.5 0.5z"/><path class="a" d="m571.4 173.7h-18.4c-0.2 0-0.5-0.2-0.5-0.5 0-0.3 0.3-0.5 0.5-0.5h18.4c0.2 0 0.5 0.2 0.5 0.5 0 0.3-0.3 0.5-0.5 0.5z"/><path class="a" d="m571.4 179.5h-18.4c-0.2 0-0.5-0.2-0.5-0.5 0-0.3 0.3-0.5 0.5-0.5h18.4c0.2 0 0.5 0.2 0.5 0.5 0 0.3-0.3 0.5-0.5 0.5z"/></svg>